<svg width="64" height="36" viewBox="0 0 64 36" fill="none" xmlns="http://www.w3.org/2000/svg">
<g opacity="0.15">
<ellipse cx="18.0077" cy="2" rx="2.00085" ry="2" fill="#EDEBE9"/>
<ellipse cx="18.0077" cy="6" rx="2.00085" ry="2" fill="#EDEBE9"/>
<ellipse cx="18.0077" cy="10" rx="2.00085" ry="2" fill="#EDEBE9"/>
<ellipse cx="61.9989" cy="10" rx="2.00085" ry="2" fill="#EDEBE9"/>
<ellipse cx="18.0077" cy="14" rx="2.00085" ry="2" fill="#EDEBE9"/>
<ellipse cx="61.9989" cy="14" rx="2.00085" ry="2" fill="#EDEBE9"/>
<ellipse cx="18.0077" cy="18" rx="2.00085" ry="2" fill="#EDEBE9"/>
<ellipse cx="61.9989" cy="18" rx="2.00085" ry="2" fill="#EDEBE9"/>
<ellipse cx="18.0077" cy="22" rx="2.00085" ry="2" fill="#EDEBE9"/>
<ellipse cx="18.0077" cy="30" rx="2.00085" ry="2" fill="#EDEBE9"/>
<ellipse cx="34.0145" cy="2" rx="2.00085" ry="2" fill="#EDEBE9"/>
<ellipse cx="34.0145" cy="6" rx="2.00085" ry="2" fill="#EDEBE9"/>
<ellipse cx="34.0145" cy="10" rx="2.00085" ry="2" fill="#EDEBE9"/>
<ellipse cx="34.0145" cy="14" rx="2.00085" ry="2" fill="#EDEBE9"/>
<ellipse cx="34.0145" cy="18" rx="2.00085" ry="2" fill="#EDEBE9"/>
<ellipse cx="34.0145" cy="22" rx="2.00085" ry="2" fill="#EDEBE9"/>
<ellipse cx="34.0145" cy="30" rx="2.00085" ry="2" fill="#EDEBE9"/>
<ellipse cx="14.0062" cy="2" rx="2.00085" ry="2" fill="#EDEBE9"/>
<ellipse cx="14.0062" cy="6" rx="2.00085" ry="2" fill="#EDEBE9"/>
<ellipse cx="57.9974" cy="6" rx="2.00085" ry="2" fill="#EDEBE9"/>
<ellipse cx="14.0062" cy="10" rx="2.00085" ry="2" fill="#EDEBE9"/>
<ellipse cx="57.9974" cy="10" rx="2.00085" ry="2" fill="#EDEBE9"/>
<ellipse cx="14.0062" cy="14" rx="2.00085" ry="2" fill="#EDEBE9"/>
<ellipse cx="57.9974" cy="14" rx="2.00085" ry="2" fill="#EDEBE9"/>
<ellipse cx="14.0062" cy="18" rx="2.00085" ry="2" fill="#EDEBE9"/>
<ellipse cx="57.9974" cy="18" rx="2.00085" ry="2" fill="#EDEBE9"/>
<ellipse cx="14.0062" cy="22" rx="2.00085" ry="2" fill="#EDEBE9"/>
<ellipse cx="14.0062" cy="30" rx="2.00085" ry="2" fill="#EDEBE9"/>
<ellipse cx="57.9974" cy="22" rx="2.00085" ry="2" fill="#EDEBE9"/>
<ellipse cx="57.9974" cy="30" rx="2.00085" ry="2" fill="#EDEBE9"/>
<ellipse cx="57.9974" cy="26" rx="2.00085" ry="2" fill="#EDEBE9"/>
<ellipse cx="61.9989" cy="22" rx="2.00085" ry="2" fill="#EDEBE9"/>
<ellipse cx="61.9989" cy="26" rx="2.00085" ry="2" fill="#EDEBE9"/>
<ellipse cx="30.0131" cy="2" rx="2.00085" ry="2" fill="#EDEBE9"/>
<ellipse cx="30.0131" cy="6" rx="2.00085" ry="2" fill="#EDEBE9"/>
<ellipse cx="30.0131" cy="10" rx="2.00085" ry="2" fill="#EDEBE9"/>
<ellipse cx="30.0131" cy="14" rx="2.00085" ry="2" fill="#EDEBE9"/>
<ellipse cx="30.0131" cy="18" rx="2.00085" ry="2" fill="#EDEBE9"/>
<ellipse cx="30.0131" cy="22" rx="2.00085" ry="2" fill="#EDEBE9"/>
<ellipse cx="30.0131" cy="30" rx="2.00085" ry="2" fill="#EDEBE9"/>
<ellipse cx="10.0043" cy="2" rx="2.00085" ry="2" fill="#EDEBE9"/>
<ellipse cx="10.0043" cy="6" rx="2.00085" ry="2" fill="#EDEBE9"/>
<ellipse cx="10.0043" cy="10" rx="2.00085" ry="2" fill="#EDEBE9"/>
<ellipse cx="10.0043" cy="14" rx="2.00085" ry="2" fill="#EDEBE9"/>
<ellipse cx="10.0043" cy="18" rx="2.00085" ry="2" fill="#EDEBE9"/>
<ellipse cx="10.0043" cy="22" rx="2.00085" ry="2" fill="#EDEBE9"/>
<ellipse cx="10.0043" cy="30" rx="2.00085" ry="2" fill="#EDEBE9"/>
<ellipse cx="42.0179" cy="2" rx="2.00085" ry="2" fill="#EDEBE9"/>
<ellipse cx="42.0179" cy="6" rx="2.00085" ry="2" fill="#EDEBE9"/>
<ellipse cx="42.0179" cy="10" rx="2.00085" ry="2" fill="#EDEBE9"/>
<ellipse cx="42.0179" cy="14" rx="2.00085" ry="2" fill="#EDEBE9"/>
<ellipse cx="42.0179" cy="18" rx="2.00085" ry="2" fill="#EDEBE9"/>
<ellipse cx="42.0179" cy="22" rx="2.00085" ry="2" fill="#EDEBE9"/>
<ellipse cx="42.0179" cy="30" rx="2.00085" ry="2" fill="#EDEBE9"/>
<ellipse cx="26.0111" cy="2" rx="2.00085" ry="2" fill="#EDEBE9"/>
<ellipse cx="26.0111" cy="6" rx="2.00085" ry="2" fill="#EDEBE9"/>
<ellipse cx="26.0111" cy="10" rx="2.00085" ry="2" fill="#EDEBE9"/>
<ellipse cx="26.0111" cy="14" rx="2.00085" ry="2" fill="#EDEBE9"/>
<ellipse cx="26.0111" cy="18" rx="2.00085" ry="2" fill="#EDEBE9"/>
<ellipse cx="26.0111" cy="22" rx="2.00085" ry="2" fill="#EDEBE9"/>
<ellipse cx="26.0111" cy="30" rx="2.00085" ry="2" fill="#EDEBE9"/>
<ellipse cx="50.0214" cy="2" rx="2.00085" ry="2" fill="#EDEBE9"/>
<ellipse cx="54.0096" cy="2" rx="2.00085" ry="2" fill="#EDEBE9"/>
<ellipse cx="50.0214" cy="6" rx="2.00085" ry="2" fill="#EDEBE9"/>
<ellipse cx="54.0096" cy="6" rx="2.00085" ry="2" fill="#EDEBE9"/>
<ellipse cx="50.0214" cy="10" rx="2.00085" ry="2" fill="#EDEBE9"/>
<ellipse cx="54.0096" cy="10" rx="2.00085" ry="2" fill="#EDEBE9"/>
<ellipse cx="50.0214" cy="14" rx="2.00085" ry="2" fill="#EDEBE9"/>
<ellipse cx="54.0096" cy="14" rx="2.00085" ry="2" fill="#EDEBE9"/>
<ellipse cx="50.0214" cy="18" rx="2.00085" ry="2" fill="#EDEBE9"/>
<ellipse cx="54.0096" cy="18" rx="2.00085" ry="2" fill="#EDEBE9"/>
<ellipse cx="50.0214" cy="22" rx="2.00085" ry="2" fill="#EDEBE9"/>
<ellipse cx="54.0096" cy="22" rx="2.00085" ry="2" fill="#EDEBE9"/>
<ellipse cx="50.0214" cy="30" rx="2.00085" ry="2" fill="#EDEBE9"/>
<ellipse cx="54.0096" cy="30" rx="2.00085" ry="2" fill="#EDEBE9"/>
<ellipse cx="38.0165" cy="2" rx="2.00085" ry="2" fill="#EDEBE9"/>
<ellipse cx="38.0165" cy="6" rx="2.00085" ry="2" fill="#EDEBE9"/>
<ellipse cx="38.0165" cy="10" rx="2.00085" ry="2" fill="#EDEBE9"/>
<ellipse cx="38.0165" cy="14" rx="2.00085" ry="2" fill="#EDEBE9"/>
<ellipse cx="38.0165" cy="18" rx="2.00085" ry="2" fill="#EDEBE9"/>
<ellipse cx="38.0165" cy="22" rx="2.00085" ry="2" fill="#EDEBE9"/>
<ellipse cx="38.0165" cy="30" rx="2.00085" ry="2" fill="#EDEBE9"/>
<ellipse cx="22.0096" cy="2" rx="2.00085" ry="2" fill="#EDEBE9"/>
<ellipse cx="22.0096" cy="6" rx="2.00085" ry="2" fill="#EDEBE9"/>
<ellipse cx="22.0096" cy="10" rx="2.00085" ry="2" fill="#EDEBE9"/>
<ellipse cx="22.0096" cy="14" rx="2.00085" ry="2" fill="#EDEBE9"/>
<ellipse cx="22.0096" cy="18" rx="2.00085" ry="2" fill="#EDEBE9"/>
<ellipse cx="22.0096" cy="22" rx="2.00085" ry="2" fill="#EDEBE9"/>
<ellipse cx="22.0096" cy="30" rx="2.00085" ry="2" fill="#EDEBE9"/>
<ellipse cx="6.00281" cy="6" rx="2.00085" ry="2" fill="#EDEBE9"/>
<ellipse cx="2.00085" cy="2" rx="2.00085" ry="2" transform="matrix(1 0 0 -1 16.0068 28)" fill="#EDEBE9"/>
<ellipse cx="2.00085" cy="2" rx="2.00085" ry="2" transform="matrix(1 0 0 -1 16.0068 36)" fill="#EDEBE9"/>
<ellipse cx="2.00085" cy="2" rx="2.00085" ry="2" transform="matrix(1 0 0 -1 32.0137 28)" fill="#EDEBE9"/>
<ellipse cx="2.00085" cy="2" rx="2.00085" ry="2" transform="matrix(1 0 0 -1 32.0137 36)" fill="#EDEBE9"/>
<ellipse cx="2.00085" cy="2" rx="2.00085" ry="2" transform="matrix(1 0 0 -1 12.0054 28)" fill="#EDEBE9"/>
<ellipse cx="2.00085" cy="2" rx="2.00085" ry="2" transform="matrix(1 0 0 -1 12.0054 36)" fill="#EDEBE9"/>
<ellipse cx="2.00085" cy="2" rx="2.00085" ry="2" transform="matrix(1 0 0 -1 28.0122 28)" fill="#EDEBE9"/>
<ellipse cx="2.00085" cy="2" rx="2.00085" ry="2" transform="matrix(1 0 0 -1 28.0122 36)" fill="#EDEBE9"/>
<ellipse cx="2.00085" cy="2" rx="2.00085" ry="2" transform="matrix(1 0 0 -1 8.00342 28)" fill="#EDEBE9"/>
<ellipse cx="2.00085" cy="2" rx="2.00085" ry="2" transform="matrix(1 0 0 -1 8.00342 36)" fill="#EDEBE9"/>
<ellipse cx="2.00085" cy="2" rx="2.00085" ry="2" transform="matrix(1 0 0 -1 40.0171 28)" fill="#EDEBE9"/>
<ellipse cx="2.00085" cy="2" rx="2.00085" ry="2" transform="matrix(1 0 0 -1 40.0171 36)" fill="#EDEBE9"/>
<ellipse cx="2.00085" cy="2" rx="2.00085" ry="2" transform="matrix(1 0 0 -1 24.0103 28)" fill="#EDEBE9"/>
<ellipse cx="2.00085" cy="2" rx="2.00085" ry="2" transform="matrix(1 0 0 -1 24.0103 36)" fill="#EDEBE9"/>
<ellipse cx="2.00085" cy="2" rx="2.00085" ry="2" transform="matrix(1 0 0 -1 48.0205 28)" fill="#EDEBE9"/>
<ellipse cx="2.00085" cy="2" rx="2.00085" ry="2" transform="matrix(1 0 0 -1 52.0088 28)" fill="#EDEBE9"/>
<ellipse cx="2.00085" cy="2" rx="2.00085" ry="2" transform="matrix(1 0 0 -1 48.0205 36)" fill="#EDEBE9"/>
<ellipse cx="2.00085" cy="2" rx="2.00085" ry="2" transform="matrix(1 0 0 -1 52.0088 36)" fill="#EDEBE9"/>
<ellipse cx="2.00085" cy="2" rx="2.00085" ry="2" transform="matrix(1 0 0 -1 36.0156 28)" fill="#EDEBE9"/>
<ellipse cx="2.00085" cy="2" rx="2.00085" ry="2" transform="matrix(1 0 0 -1 36.0156 36)" fill="#EDEBE9"/>
<ellipse cx="46.0199" cy="2" rx="2.00085" ry="2" fill="#EDEBE9"/>
<ellipse cx="46.0199" cy="6" rx="2.00085" ry="2" fill="#EDEBE9"/>
<ellipse cx="46.0199" cy="10" rx="2.00085" ry="2" fill="#EDEBE9"/>
<ellipse cx="46.0199" cy="14" rx="2.00085" ry="2" fill="#EDEBE9"/>
<ellipse cx="46.0199" cy="18" rx="2.00085" ry="2" fill="#EDEBE9"/>
<ellipse cx="46.0199" cy="22" rx="2.00085" ry="2" fill="#EDEBE9"/>
<ellipse cx="46.0199" cy="30" rx="2.00085" ry="2" fill="#EDEBE9"/>
<ellipse cx="2.00085" cy="2" rx="2.00085" ry="2" transform="matrix(1 0 0 -1 44.019 28)" fill="#EDEBE9"/>
<ellipse cx="2.00085" cy="2" rx="2.00085" ry="2" transform="matrix(1 0 0 -1 44.019 36)" fill="#EDEBE9"/>
<ellipse cx="2.00085" cy="2" rx="2.00085" ry="2" transform="matrix(1 0 0 -1 20.0088 28)" fill="#EDEBE9"/>
<ellipse cx="2.00085" cy="2" rx="2.00085" ry="2" transform="matrix(1 0 0 -1 20.0088 36)" fill="#EDEBE9"/>
<ellipse cx="6.00281" cy="10" rx="2.00085" ry="2" fill="#EDEBE9"/>
<ellipse cx="6.00281" cy="14" rx="2.00085" ry="2" fill="#EDEBE9"/>
<ellipse cx="6.00281" cy="18" rx="2.00085" ry="2" fill="#EDEBE9"/>
<ellipse cx="6.00281" cy="22" rx="2.00085" ry="2" fill="#EDEBE9"/>
<ellipse cx="6.00281" cy="30" rx="2.00085" ry="2" fill="#EDEBE9"/>
<ellipse cx="6.00281" cy="26" rx="2.00085" ry="2" fill="#EDEBE9"/>
<ellipse cx="2.00085" cy="22" rx="2.00085" ry="2" fill="#EDEBE9"/>
<ellipse cx="2.00085" cy="26" rx="2.00085" ry="2" fill="#EDEBE9"/>
<ellipse cx="2.00085" cy="10" rx="2.00085" ry="2" fill="#EDEBE9"/>
<ellipse cx="2.00085" cy="14" rx="2.00085" ry="2" fill="#EDEBE9"/>
<ellipse cx="2.00085" cy="18" rx="2.00085" ry="2" fill="#EDEBE9"/>
</g>
</svg>
