<svg width="600" height="79" viewBox="0 0 600 79" fill="none" xmlns="http://www.w3.org/2000/svg">
<path d="M550 39.3834C550 41.3558 548.401 42.9548 546.428 42.9548C544.456 42.9548 542.857 41.3558 542.857 39.3834C542.857 37.4109 544.456 35.8119 546.428 35.8119C548.401 35.8119 550 37.4109 550 39.3834Z" fill="#353535"/>
<path d="M592.857 39.3834C592.857 41.3558 594.456 42.9548 596.428 42.9548C598.401 42.9548 600 41.3558 600 39.3834C600 37.4109 598.401 35.8119 596.428 35.8119C594.456 35.8119 592.857 37.4109 592.857 39.3834Z" fill="#353535"/>
<path d="M550 32.2405C550 34.213 548.401 35.8119 546.428 35.8119C544.456 35.8119 542.857 34.213 542.857 32.2405C542.857 30.2681 544.456 28.6691 546.428 28.6691C548.401 28.6691 550 30.2681 550 32.2405Z" fill="#353535"/>
<path d="M592.857 32.2405C592.857 34.213 594.456 35.8119 596.428 35.8119C598.401 35.8119 600 34.213 600 32.2405C600 30.2681 598.401 28.6691 596.428 28.6691C594.456 28.6691 592.857 30.2681 592.857 32.2405Z" fill="#353535"/>
<path d="M550 25.0977C550 27.0701 548.401 28.6691 546.428 28.6691C544.456 28.6691 542.857 27.0701 542.857 25.0977C542.857 23.1252 544.456 21.5262 546.428 21.5262C548.401 21.5262 550 23.1252 550 25.0977Z" fill="#353535"/>
<path d="M592.857 25.0977C592.857 27.0701 594.456 28.6691 596.428 28.6691C598.401 28.6691 600 27.0701 600 25.0977C600 23.1252 598.401 21.5262 596.428 21.5262C594.456 21.5262 592.857 23.1252 592.857 25.0977Z" fill="#353535"/>
<path d="M550 17.9548C550 19.9272 548.401 21.5262 546.428 21.5262C544.456 21.5262 542.857 19.9272 542.857 17.9548C542.857 15.9824 544.456 14.3834 546.428 14.3834C548.401 14.3834 550 15.9824 550 17.9548Z" fill="#353535"/>
<path d="M592.857 17.9548C592.857 19.9272 594.456 21.5262 596.428 21.5262C598.401 21.5262 600 19.9272 600 17.9548C600 15.9824 598.401 14.3834 596.428 14.3834C594.456 14.3834 592.857 15.9824 592.857 17.9548Z" fill="#353535"/>
<path d="M557.143 17.9548C557.143 19.9272 555.544 21.5262 553.571 21.5262C551.599 21.5262 550 19.9272 550 17.9548C550 15.9824 551.599 14.3834 553.571 14.3834C555.544 14.3834 557.143 15.9824 557.143 17.9548Z" fill="#353535"/>
<path d="M585.714 17.9548C585.714 19.9272 587.313 21.5262 589.286 21.5262C591.258 21.5262 592.857 19.9272 592.857 17.9548C592.857 15.9824 591.258 14.3834 589.286 14.3834C587.313 14.3834 585.714 15.9824 585.714 17.9548Z" fill="#353535"/>
<path d="M557.143 25.0977C557.143 27.0701 555.544 28.6691 553.571 28.6691C551.599 28.6691 550 27.0701 550 25.0977C550 23.1252 551.599 21.5262 553.571 21.5262C555.544 21.5262 557.143 23.1252 557.143 25.0977Z" fill="#353535"/>
<path d="M585.714 25.0977C585.714 27.0701 587.313 28.6691 589.286 28.6691C591.258 28.6691 592.857 27.0701 592.857 25.0977C592.857 23.1252 591.258 21.5262 589.286 21.5262C587.313 21.5262 585.714 23.1252 585.714 25.0977Z" fill="#353535"/>
<path d="M557.143 32.2405C557.143 34.213 555.544 35.8119 553.571 35.8119C551.599 35.8119 550 34.213 550 32.2405C550 30.2681 551.599 28.6691 553.571 28.6691C555.544 28.6691 557.143 30.2681 557.143 32.2405Z" fill="#353535"/>
<path d="M585.714 32.2405C585.714 34.213 587.313 35.8119 589.286 35.8119C591.258 35.8119 592.857 34.213 592.857 32.2405C592.857 30.2681 591.258 28.6691 589.286 28.6691C587.313 28.6691 585.714 30.2681 585.714 32.2405Z" fill="#353535"/>
<path d="M557.143 39.3834C557.143 41.3558 555.544 42.9548 553.571 42.9548C551.599 42.9548 550 41.3558 550 39.3834C550 37.4109 551.599 35.8119 553.571 35.8119C555.544 35.8119 557.143 37.4109 557.143 39.3834Z" fill="#353535"/>
<path d="M585.714 39.3834C585.714 41.3558 587.313 42.9548 589.286 42.9548C591.258 42.9548 592.857 41.3558 592.857 39.3834C592.857 37.4109 591.258 35.8119 589.286 35.8119C587.313 35.8119 585.714 37.4109 585.714 39.3834Z" fill="#353535"/>
<path d="M557.143 46.5262C557.143 48.4987 555.544 50.0977 553.571 50.0977C551.599 50.0977 550 48.4987 550 46.5262C550 44.5538 551.599 42.9548 553.571 42.9548C555.544 42.9548 557.143 44.5538 557.143 46.5262Z" fill="#353535"/>
<path d="M585.714 46.5262C585.714 48.4987 587.313 50.0977 589.286 50.0977C591.258 50.0977 592.857 48.4987 592.857 46.5262C592.857 44.5538 591.258 42.9548 589.286 42.9548C587.313 42.9548 585.714 44.5538 585.714 46.5262Z" fill="#353535"/>
<path d="M557.143 10.8119C557.143 12.7844 555.544 14.3834 553.571 14.3834C551.599 14.3834 550 12.7844 550 10.8119C550 8.8395 551.599 7.24051 553.571 7.24051C555.544 7.24051 557.143 8.8395 557.143 10.8119Z" fill="#353535"/>
<path d="M585.714 10.8119C585.714 12.7844 587.313 14.3834 589.286 14.3834C591.258 14.3834 592.857 12.7844 592.857 10.8119C592.857 8.8395 591.258 7.24051 589.286 7.24051C587.313 7.24051 585.714 8.8395 585.714 10.8119Z" fill="#353535"/>
<path d="M564.286 10.8119C564.286 12.7844 562.687 14.3834 560.714 14.3834C558.742 14.3834 557.143 12.7844 557.143 10.8119C557.143 8.8395 558.742 7.24051 560.714 7.24051C562.687 7.24051 564.286 8.8395 564.286 10.8119Z" fill="#353535"/>
<path d="M564.286 17.9548C564.286 19.9272 562.687 21.5262 560.714 21.5262C558.742 21.5262 557.143 19.9272 557.143 17.9548C557.143 15.9824 558.742 14.3834 560.714 14.3834C562.687 14.3834 564.286 15.9824 564.286 17.9548Z" fill="#353535"/>
<path d="M564.286 25.0977C564.286 27.0701 562.687 28.6691 560.714 28.6691C558.742 28.6691 557.143 27.0701 557.143 25.0977C557.143 23.1252 558.742 21.5262 560.714 21.5262C562.687 21.5262 564.286 23.1252 564.286 25.0977Z" fill="#353535"/>
<path d="M564.286 32.2405C564.286 34.213 562.687 35.8119 560.714 35.8119C558.742 35.8119 557.143 34.213 557.143 32.2405C557.143 30.2681 558.742 28.6691 560.714 28.6691C562.687 28.6691 564.286 30.2681 564.286 32.2405Z" fill="#353535"/>
<path d="M564.286 39.3834C564.286 41.3558 562.687 42.9548 560.714 42.9548C558.742 42.9548 557.143 41.3558 557.143 39.3834C557.143 37.4109 558.742 35.8119 560.714 35.8119C562.687 35.8119 564.286 37.4109 564.286 39.3834Z" fill="#353535"/>
<path d="M564.286 3.66909C564.286 5.64153 562.687 7.24051 560.714 7.24051C558.742 7.24051 557.143 5.64153 557.143 3.66909C557.143 1.69664 558.742 0.0976562 560.714 0.0976562C562.687 0.0976562 564.286 1.69664 564.286 3.66909Z" fill="#353535"/>
<path d="M564.286 46.5262C564.286 48.4987 562.687 50.0977 560.714 50.0977C558.742 50.0977 557.143 48.4987 557.143 46.5262C557.143 44.5538 558.742 42.9548 560.714 42.9548C562.687 42.9548 564.286 44.5538 564.286 46.5262Z" fill="#353535"/>
<path d="M564.286 53.6691C564.286 55.6415 562.687 57.2405 560.714 57.2405C558.742 57.2405 557.143 55.6415 557.143 53.6691C557.143 51.6966 558.742 50.0977 560.714 50.0977C562.687 50.0977 564.286 51.6966 564.286 53.6691Z" fill="#353535"/>
<path d="M571.428 3.66909C571.428 5.64153 569.83 7.24051 567.857 7.24051C565.885 7.24051 564.286 5.64153 564.286 3.66909C564.286 1.69664 565.885 0.0976562 567.857 0.0976562C569.83 0.0976562 571.428 1.69664 571.428 3.66909Z" fill="#353535"/>
<path d="M571.428 46.5262C571.428 48.4987 569.83 50.0977 567.857 50.0977C565.885 50.0977 564.286 48.4987 564.286 46.5262C564.286 44.5538 565.885 42.9548 567.857 42.9548C569.83 42.9548 571.428 44.5538 571.428 46.5262Z" fill="#353535"/>
<path d="M571.428 53.6691C571.428 55.6415 569.83 57.2405 567.857 57.2405C565.885 57.2405 564.286 55.6415 564.286 53.6691C564.286 51.6966 565.885 50.0977 567.857 50.0977C569.83 50.0977 571.428 51.6966 571.428 53.6691Z" fill="#353535"/>
<path d="M571.428 10.8119C571.428 12.7844 569.83 14.3834 567.857 14.3834C565.885 14.3834 564.286 12.7844 564.286 10.8119C564.286 8.8395 565.885 7.24051 567.857 7.24051C569.83 7.24051 571.428 8.8395 571.428 10.8119Z" fill="#353535"/>
<path d="M571.428 17.9548C571.428 19.9272 569.83 21.5262 567.857 21.5262C565.885 21.5262 564.286 19.9272 564.286 17.9548C564.286 15.9824 565.885 14.3834 567.857 14.3834C569.83 14.3834 571.428 15.9824 571.428 17.9548Z" fill="#353535"/>
<path d="M571.428 25.0977C571.428 27.0701 569.83 28.6691 567.857 28.6691C565.885 28.6691 564.286 27.0701 564.286 25.0977C564.286 23.1252 565.885 21.5262 567.857 21.5262C569.83 21.5262 571.428 23.1252 571.428 25.0977Z" fill="#353535"/>
<path d="M571.428 32.2405C571.428 34.213 569.83 35.8119 567.857 35.8119C565.885 35.8119 564.286 34.213 564.286 32.2405C564.286 30.2681 565.885 28.6691 567.857 28.6691C569.83 28.6691 571.428 30.2681 571.428 32.2405Z" fill="#353535"/>
<path d="M571.428 39.3834C571.428 41.3558 569.83 42.9548 567.857 42.9548C565.885 42.9548 564.286 41.3558 564.286 39.3834C564.286 37.4109 565.885 35.8119 567.857 35.8119C569.83 35.8119 571.428 37.4109 571.428 39.3834Z" fill="#353535"/>
<path d="M578.571 3.66909C578.571 5.64153 576.972 7.24051 575 7.24051C573.027 7.24051 571.428 5.64153 571.428 3.66909C571.428 1.69664 573.027 0.0976562 575 0.0976562C576.972 0.0976562 578.571 1.69664 578.571 3.66909Z" fill="#353535"/>
<path d="M578.571 46.5262C578.571 48.4987 576.972 50.0977 575 50.0977C573.027 50.0977 571.428 48.4987 571.428 46.5262C571.428 44.5538 573.027 42.9548 575 42.9548C576.972 42.9548 578.571 44.5538 578.571 46.5262Z" fill="#353535"/>
<path d="M578.571 53.6691C578.571 55.6415 576.972 57.2405 575 57.2405C573.027 57.2405 571.428 55.6415 571.428 53.6691C571.428 51.6966 573.027 50.0977 575 50.0977C576.972 50.0977 578.571 51.6966 578.571 53.6691Z" fill="#353535"/>
<path d="M578.571 10.8119C578.571 12.7844 576.972 14.3834 575 14.3834C573.027 14.3834 571.428 12.7844 571.428 10.8119C571.428 8.8395 573.027 7.24051 575 7.24051C576.972 7.24051 578.571 8.8395 578.571 10.8119Z" fill="#353535"/>
<path d="M578.571 17.9548C578.571 19.9272 576.972 21.5262 575 21.5262C573.027 21.5262 571.428 19.9272 571.428 17.9548C571.428 15.9824 573.027 14.3834 575 14.3834C576.972 14.3834 578.571 15.9824 578.571 17.9548Z" fill="#353535"/>
<path d="M578.571 25.0977C578.571 27.0701 576.972 28.6691 575 28.6691C573.027 28.6691 571.428 27.0701 571.428 25.0977C571.428 23.1252 573.027 21.5262 575 21.5262C576.972 21.5262 578.571 23.1252 578.571 25.0977Z" fill="#353535"/>
<path d="M578.571 32.2405C578.571 34.213 576.972 35.8119 575 35.8119C573.027 35.8119 571.428 34.213 571.428 32.2405C571.428 30.2681 573.027 28.6691 575 28.6691C576.972 28.6691 578.571 30.2681 578.571 32.2405Z" fill="#353535"/>
<path d="M578.571 39.3834C578.571 41.3558 576.972 42.9548 575 42.9548C573.027 42.9548 571.428 41.3558 571.428 39.3834C571.428 37.4109 573.027 35.8119 575 35.8119C576.972 35.8119 578.571 37.4109 578.571 39.3834Z" fill="#353535"/>
<path d="M585.714 3.66909C585.714 5.64153 584.115 7.24051 582.143 7.24051C580.17 7.24051 578.571 5.64153 578.571 3.66909C578.571 1.69664 580.17 0.0976562 582.143 0.0976562C584.115 0.0976562 585.714 1.69664 585.714 3.66909Z" fill="#353535"/>
<path d="M585.714 46.5262C585.714 48.4987 584.115 50.0977 582.143 50.0977C580.17 50.0977 578.571 48.4987 578.571 46.5262C578.571 44.5538 580.17 42.9548 582.143 42.9548C584.115 42.9548 585.714 44.5538 585.714 46.5262Z" fill="#353535"/>
<path d="M585.714 53.6691C585.714 55.6415 584.115 57.2405 582.143 57.2405C580.17 57.2405 578.571 55.6415 578.571 53.6691C578.571 51.6966 580.17 50.0977 582.143 50.0977C584.115 50.0977 585.714 51.6966 585.714 53.6691Z" fill="#353535"/>
<path d="M585.714 10.8119C585.714 12.7844 584.115 14.3834 582.143 14.3834C580.17 14.3834 578.571 12.7844 578.571 10.8119C578.571 8.8395 580.17 7.24051 582.143 7.24051C584.115 7.24051 585.714 8.8395 585.714 10.8119Z" fill="#353535"/>
<path d="M585.714 17.9548C585.714 19.9272 584.115 21.5262 582.143 21.5262C580.17 21.5262 578.571 19.9272 578.571 17.9548C578.571 15.9824 580.17 14.3834 582.143 14.3834C584.115 14.3834 585.714 15.9824 585.714 17.9548Z" fill="#353535"/>
<path d="M585.714 25.0977C585.714 27.0701 584.115 28.6691 582.143 28.6691C580.17 28.6691 578.571 27.0701 578.571 25.0977C578.571 23.1252 580.17 21.5262 582.143 21.5262C584.115 21.5262 585.714 23.1252 585.714 25.0977Z" fill="#353535"/>
<path d="M585.714 32.2405C585.714 34.213 584.115 35.8119 582.143 35.8119C580.17 35.8119 578.571 34.213 578.571 32.2405C578.571 30.2681 580.17 28.6691 582.143 28.6691C584.115 28.6691 585.714 30.2681 585.714 32.2405Z" fill="#353535"/>
<path d="M585.714 39.3834C585.714 41.3558 584.115 42.9548 582.143 42.9548C580.17 42.9548 578.571 41.3558 578.571 39.3834C578.571 37.4109 580.17 35.8119 582.143 35.8119C584.115 35.8119 585.714 37.4109 585.714 39.3834Z" fill="#353535"/>
<circle cx="546.428" cy="10.7145" r="3.57143" fill="#353535"/>
<circle cx="546.428" cy="3.57143" r="3.57143" fill="#353535"/>
<circle cx="546.428" cy="53.5714" r="3.57143" fill="#353535"/>
<circle cx="539.286" cy="53.5714" r="3.57143" fill="#353535"/>
<circle cx="532.143" cy="53.5714" r="3.57143" fill="#353535"/>
<circle cx="510.714" cy="53.5714" r="3.57143" fill="#353535"/>
<circle cx="489.285" cy="53.5714" r="3.57143" fill="#353535"/>
<circle cx="367.857" cy="53.5714" r="3.57143" fill="#353535"/>
<circle cx="246.428" cy="53.5714" r="3.57143" fill="#353535"/>
<circle cx="125" cy="53.5714" r="3.57143" fill="#353535"/>
<circle cx="82.1427" cy="53.5714" r="3.57143" fill="#353535"/>
<circle cx="467.857" cy="53.5714" r="3.57143" fill="#353535"/>
<circle cx="346.429" cy="53.5714" r="3.57143" fill="#353535"/>
<circle cx="225" cy="53.5714" r="3.57143" fill="#353535"/>
<circle cx="103.572" cy="53.5714" r="3.57143" fill="#353535"/>
<circle cx="60.7144" cy="53.5714" r="3.57143" fill="#353535"/>
<circle cx="446.429" cy="53.5714" r="3.57143" fill="#353535"/>
<circle cx="325" cy="53.5714" r="3.57143" fill="#353535"/>
<circle cx="203.571" cy="53.5714" r="3.57143" fill="#353535"/>
<circle cx="425" cy="53.5714" r="3.57143" fill="#353535"/>
<circle cx="303.571" cy="53.5714" r="3.57143" fill="#353535"/>
<circle cx="182.143" cy="53.5714" r="3.57143" fill="#353535"/>
<circle cx="403.572" cy="53.5714" r="3.57143" fill="#353535"/>
<circle cx="282.143" cy="53.5714" r="3.57143" fill="#353535"/>
<circle cx="160.714" cy="53.5714" r="3.57143" fill="#353535"/>
<circle cx="525" cy="53.5714" r="3.57143" fill="#353535"/>
<circle cx="503.571" cy="53.5714" r="3.57143" fill="#353535"/>
<circle cx="382.143" cy="53.5714" r="3.57143" fill="#353535"/>
<circle cx="260.714" cy="53.5714" r="3.57143" fill="#353535"/>
<circle cx="139.286" cy="53.5714" r="3.57143" fill="#353535"/>
<circle cx="96.4285" cy="53.5714" r="3.57143" fill="#353535"/>
<circle cx="482.143" cy="53.5714" r="3.57143" fill="#353535"/>
<circle cx="360.714" cy="53.5714" r="3.57143" fill="#353535"/>
<circle cx="239.286" cy="53.5714" r="3.57143" fill="#353535"/>
<circle cx="117.857" cy="53.5714" r="3.57143" fill="#353535"/>
<circle cx="75.0001" cy="53.5714" r="3.57143" fill="#353535"/>
<circle cx="460.714" cy="53.5714" r="3.57143" fill="#353535"/>
<circle cx="339.285" cy="53.5714" r="3.57143" fill="#353535"/>
<circle cx="217.857" cy="53.5714" r="3.57143" fill="#353535"/>
<circle cx="53.5712" cy="53.5714" r="3.57143" fill="#353535"/>
<circle cx="439.286" cy="53.5714" r="3.57143" fill="#353535"/>
<circle cx="317.857" cy="53.5714" r="3.57143" fill="#353535"/>
<circle cx="196.429" cy="53.5714" r="3.57143" fill="#353535"/>
<circle cx="417.857" cy="53.5714" r="3.57143" fill="#353535"/>
<circle cx="296.429" cy="53.5714" r="3.57143" fill="#353535"/>
<circle cx="175" cy="53.5714" r="3.57143" fill="#353535"/>
<circle cx="396.428" cy="53.5714" r="3.57143" fill="#353535"/>
<circle cx="275" cy="53.5714" r="3.57143" fill="#353535"/>
<circle cx="153.571" cy="53.5714" r="3.57143" fill="#353535"/>
<circle cx="517.857" cy="53.5714" r="3.57143" fill="#353535"/>
<circle cx="496.429" cy="53.5714" r="3.57143" fill="#353535"/>
<circle cx="375" cy="53.5714" r="3.57143" fill="#353535"/>
<circle cx="253.572" cy="53.5714" r="3.57143" fill="#353535"/>
<circle cx="132.143" cy="53.5714" r="3.57143" fill="#353535"/>
<circle cx="89.2859" cy="53.5714" r="3.57143" fill="#353535"/>
<circle cx="475" cy="53.5714" r="3.57143" fill="#353535"/>
<circle cx="353.571" cy="53.5714" r="3.57143" fill="#353535"/>
<circle cx="232.143" cy="53.5714" r="3.57143" fill="#353535"/>
<circle cx="110.714" cy="53.5714" r="3.57143" fill="#353535"/>
<circle cx="67.857" cy="53.5714" r="3.57143" fill="#353535"/>
<circle cx="453.571" cy="53.5714" r="3.57143" fill="#353535"/>
<circle cx="332.143" cy="53.5714" r="3.57143" fill="#353535"/>
<circle cx="210.714" cy="53.5714" r="3.57143" fill="#353535"/>
<circle cx="46.4287" cy="53.5714" r="3.57143" fill="#353535"/>
<circle cx="432.143" cy="53.5714" r="3.57143" fill="#353535"/>
<circle cx="310.714" cy="53.5714" r="3.57143" fill="#353535"/>
<circle cx="189.285" cy="53.5714" r="3.57143" fill="#353535"/>
<circle cx="410.714" cy="53.5714" r="3.57143" fill="#353535"/>
<circle cx="289.286" cy="53.5714" r="3.57143" fill="#353535"/>
<circle cx="167.857" cy="53.5714" r="3.57143" fill="#353535"/>
<circle cx="389.286" cy="53.5714" r="3.57143" fill="#353535"/>
<circle cx="267.857" cy="53.5714" r="3.57143" fill="#353535"/>
<circle cx="146.429" cy="53.5714" r="3.57143" fill="#353535"/>
<circle cx="539.286" cy="39.2858" r="3.57143" fill="#353535"/>
<circle cx="539.286" cy="60.714" r="3.57143" fill="#353535"/>
<circle cx="596.429" cy="53.6691" r="3.57143" fill="#353535"/>
<circle cx="596.429" cy="60.8122" r="3.57143" fill="#353535"/>
<circle cx="532.143" cy="39.2858" r="3.57143" fill="#353535"/>
<circle cx="532.143" cy="60.714" r="3.57143" fill="#353535"/>
<circle cx="596.429" cy="46.526" r="3.57143" fill="#353535"/>
<circle cx="510.714" cy="39.2858" r="3.57143" fill="#353535"/>
<circle cx="510.714" cy="60.714" r="3.57143" fill="#353535"/>
<circle cx="575" cy="60.714" r="3.57143" fill="#353535"/>
<circle cx="489.285" cy="39.2858" r="3.57143" fill="#353535"/>
<circle cx="489.285" cy="60.714" r="3.57143" fill="#353535"/>
<circle cx="553.572" cy="60.714" r="3.57143" fill="#353535"/>
<circle cx="367.857" cy="39.2858" r="3.57143" fill="#353535"/>
<circle cx="367.857" cy="60.714" r="3.57143" fill="#353535"/>
<circle cx="246.428" cy="39.2858" r="3.57143" fill="#353535"/>
<circle cx="246.428" cy="60.714" r="3.57143" fill="#353535"/>
<circle cx="125" cy="39.2858" r="3.57143" fill="#353535"/>
<circle cx="125" cy="60.714" r="3.57143" fill="#353535"/>
<circle cx="82.1427" cy="39.2858" r="3.57143" fill="#353535"/>
<circle cx="82.1427" cy="60.714" r="3.57143" fill="#353535"/>
<circle cx="467.857" cy="39.2858" r="3.57143" fill="#353535"/>
<circle cx="467.857" cy="60.714" r="3.57143" fill="#353535"/>
<circle cx="346.429" cy="39.2858" r="3.57143" fill="#353535"/>
<circle cx="346.429" cy="60.714" r="3.57143" fill="#353535"/>
<circle cx="225" cy="39.2858" r="3.57143" fill="#353535"/>
<circle cx="225" cy="60.714" r="3.57143" fill="#353535"/>
<circle cx="103.572" cy="39.2858" r="3.57143" fill="#353535"/>
<circle cx="103.572" cy="60.714" r="3.57143" fill="#353535"/>
<circle cx="60.7144" cy="39.2858" r="3.57143" fill="#353535"/>
<circle cx="60.7144" cy="60.714" r="3.57143" fill="#353535"/>
<circle cx="446.429" cy="39.2858" r="3.57143" fill="#353535"/>
<circle cx="446.429" cy="60.714" r="3.57143" fill="#353535"/>
<circle cx="325" cy="39.2858" r="3.57143" fill="#353535"/>
<circle cx="325" cy="60.714" r="3.57143" fill="#353535"/>
<circle cx="203.571" cy="39.2858" r="3.57143" fill="#353535"/>
<circle cx="203.571" cy="60.714" r="3.57143" fill="#353535"/>
<circle cx="425" cy="39.2858" r="3.57143" fill="#353535"/>
<circle cx="425" cy="60.714" r="3.57143" fill="#353535"/>
<circle cx="303.571" cy="39.2858" r="3.57143" fill="#353535"/>
<circle cx="303.571" cy="60.714" r="3.57143" fill="#353535"/>
<circle cx="182.143" cy="39.2858" r="3.57143" fill="#353535"/>
<circle cx="182.143" cy="60.714" r="3.57143" fill="#353535"/>
<circle cx="403.572" cy="39.2858" r="3.57143" fill="#353535"/>
<circle cx="403.572" cy="60.714" r="3.57143" fill="#353535"/>
<circle cx="282.143" cy="39.2858" r="3.57143" fill="#353535"/>
<circle cx="282.143" cy="60.714" r="3.57143" fill="#353535"/>
<circle cx="160.714" cy="39.2858" r="3.57143" fill="#353535"/>
<circle cx="160.714" cy="60.714" r="3.57143" fill="#353535"/>
<circle cx="525" cy="39.2858" r="3.57143" fill="#353535"/>
<circle cx="525" cy="60.714" r="3.57143" fill="#353535"/>
<circle cx="589.286" cy="53.6691" r="3.57143" fill="#353535"/>
<circle cx="503.571" cy="39.2858" r="3.57143" fill="#353535"/>
<circle cx="503.571" cy="60.714" r="3.57143" fill="#353535"/>
<circle cx="567.857" cy="60.714" r="3.57143" fill="#353535"/>
<circle cx="382.143" cy="39.2858" r="3.57143" fill="#353535"/>
<circle cx="382.143" cy="60.714" r="3.57143" fill="#353535"/>
<circle cx="260.714" cy="39.2858" r="3.57143" fill="#353535"/>
<circle cx="260.714" cy="60.714" r="3.57143" fill="#353535"/>
<circle cx="139.286" cy="39.2858" r="3.57143" fill="#353535"/>
<circle cx="139.286" cy="60.714" r="3.57143" fill="#353535"/>
<circle cx="96.4285" cy="39.2858" r="3.57143" fill="#353535"/>
<circle cx="96.4285" cy="60.714" r="3.57143" fill="#353535"/>
<circle cx="482.143" cy="39.2858" r="3.57143" fill="#353535"/>
<circle cx="482.143" cy="60.714" r="3.57143" fill="#353535"/>
<circle cx="360.714" cy="39.2858" r="3.57143" fill="#353535"/>
<circle cx="360.714" cy="60.714" r="3.57143" fill="#353535"/>
<circle cx="239.286" cy="39.2858" r="3.57143" fill="#353535"/>
<circle cx="239.286" cy="60.714" r="3.57143" fill="#353535"/>
<circle cx="117.857" cy="39.2858" r="3.57143" fill="#353535"/>
<circle cx="117.857" cy="60.714" r="3.57143" fill="#353535"/>
<circle cx="75.0001" cy="39.2858" r="3.57143" fill="#353535"/>
<circle cx="75.0001" cy="60.714" r="3.57143" fill="#353535"/>
<circle cx="460.714" cy="39.2858" r="3.57143" fill="#353535"/>
<circle cx="460.714" cy="60.714" r="3.57143" fill="#353535"/>
<circle cx="339.285" cy="39.2858" r="3.57143" fill="#353535"/>
<circle cx="339.285" cy="60.714" r="3.57143" fill="#353535"/>
<circle cx="217.857" cy="39.2858" r="3.57143" fill="#353535"/>
<circle cx="217.857" cy="60.714" r="3.57143" fill="#353535"/>
<circle cx="53.5712" cy="39.2858" r="3.57143" fill="#353535"/>
<circle cx="53.5712" cy="60.714" r="3.57143" fill="#353535"/>
<circle cx="439.286" cy="39.2858" r="3.57143" fill="#353535"/>
<circle cx="439.286" cy="60.714" r="3.57143" fill="#353535"/>
<circle cx="317.857" cy="39.2858" r="3.57143" fill="#353535"/>
<circle cx="317.857" cy="60.714" r="3.57143" fill="#353535"/>
<circle cx="196.429" cy="39.2858" r="3.57143" fill="#353535"/>
<circle cx="196.429" cy="60.714" r="3.57143" fill="#353535"/>
<circle cx="417.857" cy="39.2858" r="3.57143" fill="#353535"/>
<circle cx="417.857" cy="60.714" r="3.57143" fill="#353535"/>
<circle cx="296.429" cy="39.2858" r="3.57143" fill="#353535"/>
<circle cx="296.429" cy="60.714" r="3.57143" fill="#353535"/>
<circle cx="175" cy="39.2858" r="3.57143" fill="#353535"/>
<circle cx="175" cy="60.714" r="3.57143" fill="#353535"/>
<circle cx="396.428" cy="39.2858" r="3.57143" fill="#353535"/>
<circle cx="396.428" cy="60.714" r="3.57143" fill="#353535"/>
<circle cx="275" cy="39.2858" r="3.57143" fill="#353535"/>
<circle cx="275" cy="60.714" r="3.57143" fill="#353535"/>
<circle cx="153.571" cy="39.2858" r="3.57143" fill="#353535"/>
<circle cx="153.571" cy="60.714" r="3.57143" fill="#353535"/>
<circle cx="517.857" cy="39.2858" r="3.57143" fill="#353535"/>
<circle cx="517.857" cy="60.714" r="3.57143" fill="#353535"/>
<circle cx="582.143" cy="60.714" r="3.57143" fill="#353535"/>
<circle cx="496.429" cy="39.2858" r="3.57143" fill="#353535"/>
<circle cx="496.429" cy="60.714" r="3.57143" fill="#353535"/>
<circle cx="560.714" cy="60.714" r="3.57143" fill="#353535"/>
<circle cx="375" cy="39.2858" r="3.57143" fill="#353535"/>
<circle cx="375" cy="60.714" r="3.57143" fill="#353535"/>
<circle cx="253.572" cy="39.2858" r="3.57143" fill="#353535"/>
<circle cx="253.572" cy="60.714" r="3.57143" fill="#353535"/>
<circle cx="132.143" cy="39.2858" r="3.57143" fill="#353535"/>
<circle cx="132.143" cy="60.714" r="3.57143" fill="#353535"/>
<circle cx="89.2859" cy="39.2858" r="3.57143" fill="#353535"/>
<circle cx="89.2859" cy="60.714" r="3.57143" fill="#353535"/>
<circle cx="475" cy="39.2858" r="3.57143" fill="#353535"/>
<circle cx="475" cy="60.714" r="3.57143" fill="#353535"/>
<circle cx="353.571" cy="39.2858" r="3.57143" fill="#353535"/>
<circle cx="353.571" cy="60.714" r="3.57143" fill="#353535"/>
<circle cx="232.143" cy="39.2858" r="3.57143" fill="#353535"/>
<circle cx="232.143" cy="60.714" r="3.57143" fill="#353535"/>
<circle cx="110.714" cy="39.2858" r="3.57143" fill="#353535"/>
<circle cx="110.714" cy="60.714" r="3.57143" fill="#353535"/>
<circle cx="67.857" cy="39.2858" r="3.57143" fill="#353535"/>
<circle cx="67.857" cy="60.714" r="3.57143" fill="#353535"/>
<circle cx="453.571" cy="39.2858" r="3.57143" fill="#353535"/>
<circle cx="453.571" cy="60.714" r="3.57143" fill="#353535"/>
<circle cx="332.143" cy="39.2858" r="3.57143" fill="#353535"/>
<circle cx="332.143" cy="60.714" r="3.57143" fill="#353535"/>
<circle cx="210.714" cy="39.2858" r="3.57143" fill="#353535"/>
<circle cx="210.714" cy="60.714" r="3.57143" fill="#353535"/>
<circle cx="46.4287" cy="39.2858" r="3.57143" fill="#353535"/>
<circle cx="46.4287" cy="60.714" r="3.57143" fill="#353535"/>
<circle cx="432.143" cy="39.2858" r="3.57143" fill="#353535"/>
<circle cx="432.143" cy="60.714" r="3.57143" fill="#353535"/>
<circle cx="310.714" cy="39.2858" r="3.57143" fill="#353535"/>
<circle cx="310.714" cy="60.714" r="3.57143" fill="#353535"/>
<circle cx="189.285" cy="39.2858" r="3.57143" fill="#353535"/>
<circle cx="189.285" cy="60.714" r="3.57143" fill="#353535"/>
<circle cx="410.714" cy="39.2858" r="3.57143" fill="#353535"/>
<circle cx="410.714" cy="60.714" r="3.57143" fill="#353535"/>
<circle cx="289.286" cy="39.2858" r="3.57143" fill="#353535"/>
<circle cx="289.286" cy="60.714" r="3.57143" fill="#353535"/>
<circle cx="167.857" cy="39.2858" r="3.57143" fill="#353535"/>
<circle cx="167.857" cy="60.714" r="3.57143" fill="#353535"/>
<circle cx="389.286" cy="39.2858" r="3.57143" fill="#353535"/>
<circle cx="389.286" cy="60.714" r="3.57143" fill="#353535"/>
<circle cx="267.857" cy="39.2858" r="3.57143" fill="#353535"/>
<circle cx="267.857" cy="60.714" r="3.57143" fill="#353535"/>
<circle cx="146.429" cy="39.2858" r="3.57143" fill="#353535"/>
<circle cx="146.429" cy="60.714" r="3.57143" fill="#353535"/>
<circle cx="539.286" cy="25.0001" r="3.57143" fill="#353535"/>
<circle cx="532.143" cy="25.0001" r="3.57143" fill="#353535"/>
<circle cx="510.714" cy="25.0001" r="3.57143" fill="#353535"/>
<circle cx="489.285" cy="25.0001" r="3.57143" fill="#353535"/>
<circle cx="367.857" cy="25.0001" r="3.57143" fill="#353535"/>
<circle cx="246.428" cy="25.0001" r="3.57143" fill="#353535"/>
<circle cx="125" cy="25.0001" r="3.57143" fill="#353535"/>
<circle cx="82.1427" cy="25.0001" r="3.57143" fill="#353535"/>
<circle cx="467.857" cy="25.0001" r="3.57143" fill="#353535"/>
<circle cx="346.429" cy="25.0001" r="3.57143" fill="#353535"/>
<circle cx="225" cy="25.0001" r="3.57143" fill="#353535"/>
<circle cx="103.572" cy="25.0001" r="3.57143" fill="#353535"/>
<circle cx="60.7144" cy="25.0001" r="3.57143" fill="#353535"/>
<circle cx="446.429" cy="25.0001" r="3.57143" fill="#353535"/>
<circle cx="325" cy="25.0001" r="3.57143" fill="#353535"/>
<circle cx="203.571" cy="25.0001" r="3.57143" fill="#353535"/>
<circle cx="425" cy="25.0001" r="3.57143" fill="#353535"/>
<circle cx="303.571" cy="25.0001" r="3.57143" fill="#353535"/>
<circle cx="182.143" cy="25.0001" r="3.57143" fill="#353535"/>
<circle cx="403.572" cy="25.0001" r="3.57143" fill="#353535"/>
<circle cx="282.143" cy="25.0001" r="3.57143" fill="#353535"/>
<circle cx="160.714" cy="25.0001" r="3.57143" fill="#353535"/>
<circle cx="525" cy="25.0001" r="3.57143" fill="#353535"/>
<circle cx="503.571" cy="25.0001" r="3.57143" fill="#353535"/>
<circle cx="382.143" cy="25.0001" r="3.57143" fill="#353535"/>
<circle cx="260.714" cy="25.0001" r="3.57143" fill="#353535"/>
<circle cx="139.286" cy="25.0001" r="3.57143" fill="#353535"/>
<circle cx="96.4285" cy="25.0001" r="3.57143" fill="#353535"/>
<circle cx="482.143" cy="25.0001" r="3.57143" fill="#353535"/>
<circle cx="360.714" cy="25.0001" r="3.57143" fill="#353535"/>
<circle cx="239.286" cy="25.0001" r="3.57143" fill="#353535"/>
<circle cx="117.857" cy="25.0001" r="3.57143" fill="#353535"/>
<circle cx="75.0001" cy="25.0001" r="3.57143" fill="#353535"/>
<circle cx="460.714" cy="25.0001" r="3.57143" fill="#353535"/>
<circle cx="339.285" cy="25.0001" r="3.57143" fill="#353535"/>
<circle cx="217.857" cy="25.0001" r="3.57143" fill="#353535"/>
<circle cx="53.5712" cy="25.0001" r="3.57143" fill="#353535"/>
<circle cx="439.286" cy="25.0001" r="3.57143" fill="#353535"/>
<circle cx="317.857" cy="25.0001" r="3.57143" fill="#353535"/>
<circle cx="196.429" cy="25.0001" r="3.57143" fill="#353535"/>
<circle cx="417.857" cy="25.0001" r="3.57143" fill="#353535"/>
<circle cx="296.429" cy="25.0001" r="3.57143" fill="#353535"/>
<circle cx="175" cy="25.0001" r="3.57143" fill="#353535"/>
<circle cx="396.428" cy="25.0001" r="3.57143" fill="#353535"/>
<circle cx="275" cy="25.0001" r="3.57143" fill="#353535"/>
<circle cx="153.571" cy="25.0001" r="3.57143" fill="#353535"/>
<circle cx="517.857" cy="25.0001" r="3.57143" fill="#353535"/>
<circle cx="496.429" cy="25.0001" r="3.57143" fill="#353535"/>
<circle cx="375" cy="25.0001" r="3.57143" fill="#353535"/>
<circle cx="253.572" cy="25.0001" r="3.57143" fill="#353535"/>
<circle cx="132.143" cy="25.0001" r="3.57143" fill="#353535"/>
<circle cx="89.2859" cy="25.0001" r="3.57143" fill="#353535"/>
<circle cx="475" cy="25.0001" r="3.57143" fill="#353535"/>
<circle cx="353.571" cy="25.0001" r="3.57143" fill="#353535"/>
<circle cx="232.143" cy="25.0001" r="3.57143" fill="#353535"/>
<circle cx="110.714" cy="25.0001" r="3.57143" fill="#353535"/>
<circle cx="67.857" cy="25.0001" r="3.57143" fill="#353535"/>
<circle cx="453.571" cy="25.0001" r="3.57143" fill="#353535"/>
<circle cx="332.143" cy="25.0001" r="3.57143" fill="#353535"/>
<circle cx="210.714" cy="25.0001" r="3.57143" fill="#353535"/>
<circle cx="46.4287" cy="25.0001" r="3.57143" fill="#353535"/>
<circle cx="432.143" cy="25.0001" r="3.57143" fill="#353535"/>
<circle cx="310.714" cy="25.0001" r="3.57143" fill="#353535"/>
<circle cx="189.285" cy="25.0001" r="3.57143" fill="#353535"/>
<circle cx="410.714" cy="25.0001" r="3.57143" fill="#353535"/>
<circle cx="289.286" cy="25.0001" r="3.57143" fill="#353535"/>
<circle cx="167.857" cy="25.0001" r="3.57143" fill="#353535"/>
<circle cx="389.286" cy="25.0001" r="3.57143" fill="#353535"/>
<circle cx="267.857" cy="25.0001" r="3.57143" fill="#353535"/>
<circle cx="146.429" cy="25.0001" r="3.57143" fill="#353535"/>
<circle cx="539.286" cy="10.7145" r="3.57143" fill="#353535"/>
<circle cx="532.143" cy="10.7145" r="3.57143" fill="#353535"/>
<circle cx="510.714" cy="10.7145" r="3.57143" fill="#353535"/>
<circle cx="489.285" cy="10.7145" r="3.57143" fill="#353535"/>
<circle cx="367.857" cy="10.7145" r="3.57143" fill="#353535"/>
<circle cx="246.428" cy="10.7145" r="3.57143" fill="#353535"/>
<circle cx="125" cy="10.7145" r="3.57143" fill="#353535"/>
<circle cx="82.1427" cy="10.7145" r="3.57143" fill="#353535"/>
<circle cx="467.857" cy="10.7145" r="3.57143" fill="#353535"/>
<circle cx="346.429" cy="10.7145" r="3.57143" fill="#353535"/>
<circle cx="225" cy="10.7145" r="3.57143" fill="#353535"/>
<circle cx="103.572" cy="10.7145" r="3.57143" fill="#353535"/>
<circle cx="60.7144" cy="10.7145" r="3.57143" fill="#353535"/>
<circle cx="446.429" cy="10.7145" r="3.57143" fill="#353535"/>
<circle cx="325" cy="10.7145" r="3.57143" fill="#353535"/>
<circle cx="203.571" cy="10.7145" r="3.57143" fill="#353535"/>
<circle cx="425" cy="10.7145" r="3.57143" fill="#353535"/>
<circle cx="303.571" cy="10.7145" r="3.57143" fill="#353535"/>
<circle cx="182.143" cy="10.7145" r="3.57143" fill="#353535"/>
<circle cx="403.572" cy="10.7145" r="3.57143" fill="#353535"/>
<circle cx="282.143" cy="10.7145" r="3.57143" fill="#353535"/>
<circle cx="160.714" cy="10.7145" r="3.57143" fill="#353535"/>
<circle cx="525" cy="10.7145" r="3.57143" fill="#353535"/>
<circle cx="503.571" cy="10.7145" r="3.57143" fill="#353535"/>
<circle cx="382.143" cy="10.7145" r="3.57143" fill="#353535"/>
<circle cx="260.714" cy="10.7145" r="3.57143" fill="#353535"/>
<circle cx="139.286" cy="10.7145" r="3.57143" fill="#353535"/>
<circle cx="96.4285" cy="10.7145" r="3.57143" fill="#353535"/>
<circle cx="482.143" cy="10.7145" r="3.57143" fill="#353535"/>
<circle cx="360.714" cy="10.7145" r="3.57143" fill="#353535"/>
<circle cx="239.286" cy="10.7145" r="3.57143" fill="#353535"/>
<circle cx="117.857" cy="10.7145" r="3.57143" fill="#353535"/>
<circle cx="75.0001" cy="10.7145" r="3.57143" fill="#353535"/>
<circle cx="460.714" cy="10.7145" r="3.57143" fill="#353535"/>
<circle cx="339.285" cy="10.7145" r="3.57143" fill="#353535"/>
<circle cx="217.857" cy="10.7145" r="3.57143" fill="#353535"/>
<circle cx="53.5712" cy="10.7145" r="3.57143" fill="#353535"/>
<circle cx="439.286" cy="10.7145" r="3.57143" fill="#353535"/>
<circle cx="317.857" cy="10.7145" r="3.57143" fill="#353535"/>
<circle cx="196.429" cy="10.7145" r="3.57143" fill="#353535"/>
<circle cx="417.857" cy="10.7145" r="3.57143" fill="#353535"/>
<circle cx="296.429" cy="10.7145" r="3.57143" fill="#353535"/>
<circle cx="175" cy="10.7145" r="3.57143" fill="#353535"/>
<circle cx="396.428" cy="10.7145" r="3.57143" fill="#353535"/>
<circle cx="275" cy="10.7145" r="3.57143" fill="#353535"/>
<circle cx="153.571" cy="10.7145" r="3.57143" fill="#353535"/>
<circle cx="517.857" cy="10.7145" r="3.57143" fill="#353535"/>
<circle cx="496.429" cy="10.7145" r="3.57143" fill="#353535"/>
<circle cx="375" cy="10.7145" r="3.57143" fill="#353535"/>
<circle cx="253.572" cy="10.7145" r="3.57143" fill="#353535"/>
<circle cx="132.143" cy="10.7145" r="3.57143" fill="#353535"/>
<circle cx="89.2859" cy="10.7145" r="3.57143" fill="#353535"/>
<circle cx="475" cy="10.7145" r="3.57143" fill="#353535"/>
<circle cx="353.571" cy="10.7145" r="3.57143" fill="#353535"/>
<circle cx="232.143" cy="10.7145" r="3.57143" fill="#353535"/>
<circle cx="110.714" cy="10.7145" r="3.57143" fill="#353535"/>
<circle cx="67.857" cy="10.7145" r="3.57143" fill="#353535"/>
<circle cx="453.571" cy="10.7145" r="3.57143" fill="#353535"/>
<circle cx="332.143" cy="10.7145" r="3.57143" fill="#353535"/>
<circle cx="210.714" cy="10.7145" r="3.57143" fill="#353535"/>
<circle cx="46.4287" cy="10.7145" r="3.57143" fill="#353535"/>
<circle cx="432.143" cy="10.7145" r="3.57143" fill="#353535"/>
<circle cx="310.714" cy="10.7145" r="3.57143" fill="#353535"/>
<circle cx="189.285" cy="10.7145" r="3.57143" fill="#353535"/>
<circle cx="410.714" cy="10.7145" r="3.57143" fill="#353535"/>
<circle cx="289.286" cy="10.7145" r="3.57143" fill="#353535"/>
<circle cx="167.857" cy="10.7145" r="3.57143" fill="#353535"/>
<circle cx="389.286" cy="10.7145" r="3.57143" fill="#353535"/>
<circle cx="267.857" cy="10.7145" r="3.57143" fill="#353535"/>
<circle cx="146.429" cy="10.7145" r="3.57143" fill="#353535"/>
<circle cx="546.428" cy="46.4284" r="3.57143" fill="#353535"/>
<circle cx="546.428" cy="67.8571" r="3.57143" fill="#353535"/>
<circle cx="546.428" cy="75.0978" r="3.57143" fill="#353535"/>
<circle cx="539.286" cy="46.4284" r="3.57143" fill="#353535"/>
<circle cx="539.286" cy="67.8571" r="3.57143" fill="#353535"/>
<circle cx="539.286" cy="75.0978" r="3.57143" fill="#353535"/>
<circle cx="532.143" cy="46.4284" r="3.57143" fill="#353535"/>
<circle cx="532.143" cy="67.8571" r="3.57143" fill="#353535"/>
<circle cx="532.143" cy="75.0978" r="3.57143" fill="#353535"/>
<circle cx="589.286" cy="60.8122" r="3.57143" fill="#353535"/>
<circle cx="589.286" cy="67.9547" r="3.57143" fill="#353535"/>
<circle cx="510.714" cy="46.4284" r="3.57143" fill="#353535"/>
<circle cx="510.714" cy="67.8571" r="3.57143" fill="#353535"/>
<circle cx="510.714" cy="75.0978" r="3.57143" fill="#353535"/>
<circle cx="575" cy="67.8571" r="3.57143" fill="#353535"/>
<circle cx="575" cy="75.0978" r="3.57143" fill="#353535"/>
<circle cx="489.285" cy="46.4284" r="3.57143" fill="#353535"/>
<circle cx="489.285" cy="67.8571" r="3.57143" fill="#353535"/>
<circle cx="489.285" cy="75.0978" r="3.57143" fill="#353535"/>
<circle cx="553.572" cy="67.8571" r="3.57143" fill="#353535"/>
<circle cx="553.572" cy="75.0978" r="3.57143" fill="#353535"/>
<circle cx="367.857" cy="46.4284" r="3.57143" fill="#353535"/>
<circle cx="367.857" cy="67.8571" r="3.57143" fill="#353535"/>
<circle cx="367.857" cy="75.0978" r="3.57143" fill="#353535"/>
<circle cx="246.428" cy="46.4284" r="3.57143" fill="#353535"/>
<circle cx="246.428" cy="67.8571" r="3.57143" fill="#353535"/>
<circle cx="246.428" cy="75.0978" r="3.57143" fill="#353535"/>
<circle cx="125" cy="46.4284" r="3.57143" fill="#353535"/>
<circle cx="125" cy="67.8571" r="3.57143" fill="#353535"/>
<circle cx="125" cy="75.0978" r="3.57143" fill="#353535"/>
<circle cx="82.1427" cy="46.4284" r="3.57143" fill="#353535"/>
<circle cx="82.1427" cy="67.8571" r="3.57143" fill="#353535"/>
<circle cx="82.1427" cy="75.0978" r="3.57143" fill="#353535"/>
<circle cx="467.857" cy="46.4284" r="3.57143" fill="#353535"/>
<circle cx="467.857" cy="67.8571" r="3.57143" fill="#353535"/>
<circle cx="467.857" cy="75.0978" r="3.57143" fill="#353535"/>
<circle cx="346.429" cy="46.4284" r="3.57143" fill="#353535"/>
<circle cx="346.429" cy="67.8571" r="3.57143" fill="#353535"/>
<circle cx="346.429" cy="75.0978" r="3.57143" fill="#353535"/>
<circle cx="225" cy="46.4284" r="3.57143" fill="#353535"/>
<circle cx="225" cy="67.8571" r="3.57143" fill="#353535"/>
<circle cx="225" cy="75.0978" r="3.57143" fill="#353535"/>
<circle cx="103.572" cy="46.4284" r="3.57143" fill="#353535"/>
<circle cx="103.572" cy="67.8571" r="3.57143" fill="#353535"/>
<circle cx="103.572" cy="75.0978" r="3.57143" fill="#353535"/>
<circle cx="60.7144" cy="46.4284" r="3.57143" fill="#353535"/>
<circle cx="60.7144" cy="67.8571" r="3.57143" fill="#353535"/>
<circle cx="60.7144" cy="75.0978" r="3.57143" fill="#353535"/>
<circle cx="446.429" cy="46.4284" r="3.57143" fill="#353535"/>
<circle cx="446.429" cy="67.8571" r="3.57143" fill="#353535"/>
<circle cx="446.429" cy="75.0978" r="3.57143" fill="#353535"/>
<circle cx="325" cy="46.4284" r="3.57143" fill="#353535"/>
<circle cx="325" cy="67.8571" r="3.57143" fill="#353535"/>
<circle cx="325" cy="75.0978" r="3.57143" fill="#353535"/>
<circle cx="203.571" cy="46.4284" r="3.57143" fill="#353535"/>
<circle cx="203.571" cy="67.8571" r="3.57143" fill="#353535"/>
<circle cx="203.571" cy="75.0978" r="3.57143" fill="#353535"/>
<circle cx="425" cy="46.4284" r="3.57143" fill="#353535"/>
<circle cx="425" cy="67.8571" r="3.57143" fill="#353535"/>
<circle cx="425" cy="75.0978" r="3.57143" fill="#353535"/>
<circle cx="303.571" cy="46.4284" r="3.57143" fill="#353535"/>
<circle cx="303.571" cy="67.8571" r="3.57143" fill="#353535"/>
<circle cx="303.571" cy="75.0978" r="3.57143" fill="#353535"/>
<circle cx="182.143" cy="46.4284" r="3.57143" fill="#353535"/>
<circle cx="182.143" cy="67.8571" r="3.57143" fill="#353535"/>
<circle cx="182.143" cy="75.0978" r="3.57143" fill="#353535"/>
<circle cx="403.572" cy="46.4284" r="3.57143" fill="#353535"/>
<circle cx="403.572" cy="67.8571" r="3.57143" fill="#353535"/>
<circle cx="403.572" cy="75.0978" r="3.57143" fill="#353535"/>
<circle cx="282.143" cy="46.4284" r="3.57143" fill="#353535"/>
<circle cx="282.143" cy="67.8571" r="3.57143" fill="#353535"/>
<circle cx="282.143" cy="75.0978" r="3.57143" fill="#353535"/>
<circle cx="160.714" cy="46.4284" r="3.57143" fill="#353535"/>
<circle cx="160.714" cy="67.8571" r="3.57143" fill="#353535"/>
<circle cx="160.714" cy="75.0978" r="3.57143" fill="#353535"/>
<circle cx="525" cy="46.4284" r="3.57143" fill="#353535"/>
<circle cx="525" cy="67.8571" r="3.57143" fill="#353535"/>
<circle cx="525" cy="75.0978" r="3.57143" fill="#353535"/>
<circle cx="546.428" cy="60.8122" r="3.57143" fill="#353535"/>
<circle cx="503.571" cy="46.4284" r="3.57143" fill="#353535"/>
<circle cx="503.571" cy="67.8571" r="3.57143" fill="#353535"/>
<circle cx="503.571" cy="75.0978" r="3.57143" fill="#353535"/>
<circle cx="567.857" cy="67.8571" r="3.57143" fill="#353535"/>
<circle cx="567.857" cy="75.0978" r="3.57143" fill="#353535"/>
<circle cx="382.143" cy="46.4284" r="3.57143" fill="#353535"/>
<circle cx="382.143" cy="67.8571" r="3.57143" fill="#353535"/>
<circle cx="382.143" cy="75.0978" r="3.57143" fill="#353535"/>
<circle cx="260.714" cy="46.4284" r="3.57143" fill="#353535"/>
<circle cx="260.714" cy="67.8571" r="3.57143" fill="#353535"/>
<circle cx="260.714" cy="75.0978" r="3.57143" fill="#353535"/>
<circle cx="139.286" cy="46.4284" r="3.57143" fill="#353535"/>
<circle cx="139.286" cy="67.8571" r="3.57143" fill="#353535"/>
<circle cx="139.286" cy="75.0978" r="3.57143" fill="#353535"/>
<circle cx="96.4285" cy="46.4284" r="3.57143" fill="#353535"/>
<circle cx="96.4285" cy="67.8571" r="3.57143" fill="#353535"/>
<circle cx="96.4285" cy="75.0978" r="3.57143" fill="#353535"/>
<circle cx="482.143" cy="46.4284" r="3.57143" fill="#353535"/>
<circle cx="482.143" cy="67.8571" r="3.57143" fill="#353535"/>
<circle cx="482.143" cy="75.0978" r="3.57143" fill="#353535"/>
<circle cx="360.714" cy="46.4284" r="3.57143" fill="#353535"/>
<circle cx="360.714" cy="67.8571" r="3.57143" fill="#353535"/>
<circle cx="360.714" cy="75.0978" r="3.57143" fill="#353535"/>
<circle cx="239.286" cy="46.4284" r="3.57143" fill="#353535"/>
<circle cx="239.286" cy="67.8571" r="3.57143" fill="#353535"/>
<circle cx="239.286" cy="75.0978" r="3.57143" fill="#353535"/>
<circle cx="117.857" cy="46.4284" r="3.57143" fill="#353535"/>
<circle cx="117.857" cy="67.8571" r="3.57143" fill="#353535"/>
<circle cx="117.857" cy="75.0978" r="3.57143" fill="#353535"/>
<circle cx="75.0001" cy="46.4284" r="3.57143" fill="#353535"/>
<circle cx="75.0001" cy="67.8571" r="3.57143" fill="#353535"/>
<circle cx="75.0001" cy="75.0978" r="3.57143" fill="#353535"/>
<circle cx="460.714" cy="46.4284" r="3.57143" fill="#353535"/>
<circle cx="460.714" cy="67.8571" r="3.57143" fill="#353535"/>
<circle cx="460.714" cy="75.0978" r="3.57143" fill="#353535"/>
<circle cx="339.285" cy="46.4284" r="3.57143" fill="#353535"/>
<circle cx="339.285" cy="67.8571" r="3.57143" fill="#353535"/>
<circle cx="339.285" cy="75.0978" r="3.57143" fill="#353535"/>
<circle cx="217.857" cy="46.4284" r="3.57143" fill="#353535"/>
<circle cx="217.857" cy="67.8571" r="3.57143" fill="#353535"/>
<circle cx="217.857" cy="75.0978" r="3.57143" fill="#353535"/>
<circle cx="53.5712" cy="46.4284" r="3.57143" fill="#353535"/>
<circle cx="53.5712" cy="67.8571" r="3.57143" fill="#353535"/>
<circle cx="53.5712" cy="75.0978" r="3.57143" fill="#353535"/>
<circle cx="439.286" cy="46.4284" r="3.57143" fill="#353535"/>
<circle cx="439.286" cy="67.8571" r="3.57143" fill="#353535"/>
<circle cx="439.286" cy="75.0978" r="3.57143" fill="#353535"/>
<circle cx="317.857" cy="46.4284" r="3.57143" fill="#353535"/>
<circle cx="317.857" cy="67.8571" r="3.57143" fill="#353535"/>
<circle cx="317.857" cy="75.0978" r="3.57143" fill="#353535"/>
<circle cx="196.429" cy="46.4284" r="3.57143" fill="#353535"/>
<circle cx="196.429" cy="67.8571" r="3.57143" fill="#353535"/>
<circle cx="196.429" cy="75.0978" r="3.57143" fill="#353535"/>
<circle cx="417.857" cy="46.4284" r="3.57143" fill="#353535"/>
<circle cx="417.857" cy="67.8571" r="3.57143" fill="#353535"/>
<circle cx="417.857" cy="75.0978" r="3.57143" fill="#353535"/>
<circle cx="296.429" cy="46.4284" r="3.57143" fill="#353535"/>
<circle cx="296.429" cy="67.8571" r="3.57143" fill="#353535"/>
<circle cx="296.429" cy="75.0978" r="3.57143" fill="#353535"/>
<circle cx="175" cy="46.4284" r="3.57143" fill="#353535"/>
<circle cx="175" cy="67.8571" r="3.57143" fill="#353535"/>
<circle cx="175" cy="75.0978" r="3.57143" fill="#353535"/>
<circle cx="396.428" cy="46.4284" r="3.57143" fill="#353535"/>
<circle cx="396.428" cy="67.8571" r="3.57143" fill="#353535"/>
<circle cx="396.428" cy="75.0978" r="3.57143" fill="#353535"/>
<circle cx="275" cy="46.4284" r="3.57143" fill="#353535"/>
<circle cx="275" cy="67.8571" r="3.57143" fill="#353535"/>
<circle cx="275" cy="75.0978" r="3.57143" fill="#353535"/>
<circle cx="153.571" cy="46.4284" r="3.57143" fill="#353535"/>
<circle cx="153.571" cy="67.8571" r="3.57143" fill="#353535"/>
<circle cx="153.571" cy="75.0978" r="3.57143" fill="#353535"/>
<circle cx="517.857" cy="46.4284" r="3.57143" fill="#353535"/>
<circle cx="517.857" cy="67.8571" r="3.57143" fill="#353535"/>
<circle cx="517.857" cy="75.0978" r="3.57143" fill="#353535"/>
<circle cx="582.143" cy="67.8571" r="3.57143" fill="#353535"/>
<circle cx="582.143" cy="75.0978" r="3.57143" fill="#353535"/>
<circle cx="496.429" cy="46.4284" r="3.57143" fill="#353535"/>
<circle cx="496.429" cy="67.8571" r="3.57143" fill="#353535"/>
<circle cx="496.429" cy="75.0978" r="3.57143" fill="#353535"/>
<circle cx="560.714" cy="67.8571" r="3.57143" fill="#353535"/>
<circle cx="560.714" cy="75.0978" r="3.57143" fill="#353535"/>
<circle cx="375" cy="46.4284" r="3.57143" fill="#353535"/>
<circle cx="375" cy="67.8571" r="3.57143" fill="#353535"/>
<circle cx="375" cy="75.0978" r="3.57143" fill="#353535"/>
<circle cx="253.572" cy="46.4284" r="3.57143" fill="#353535"/>
<circle cx="253.572" cy="67.8571" r="3.57143" fill="#353535"/>
<circle cx="253.572" cy="75.0978" r="3.57143" fill="#353535"/>
<circle cx="132.143" cy="46.4284" r="3.57143" fill="#353535"/>
<circle cx="132.143" cy="67.8571" r="3.57143" fill="#353535"/>
<circle cx="132.143" cy="75.0978" r="3.57143" fill="#353535"/>
<circle cx="89.2859" cy="46.4284" r="3.57143" fill="#353535"/>
<circle cx="89.2859" cy="67.8571" r="3.57143" fill="#353535"/>
<circle cx="89.2859" cy="75.0978" r="3.57143" fill="#353535"/>
<circle cx="475" cy="46.4284" r="3.57143" fill="#353535"/>
<circle cx="475" cy="67.8571" r="3.57143" fill="#353535"/>
<circle cx="475" cy="75.0978" r="3.57143" fill="#353535"/>
<circle cx="353.571" cy="46.4284" r="3.57143" fill="#353535"/>
<circle cx="353.571" cy="67.8571" r="3.57143" fill="#353535"/>
<circle cx="353.571" cy="75.0978" r="3.57143" fill="#353535"/>
<circle cx="232.143" cy="46.4284" r="3.57143" fill="#353535"/>
<circle cx="232.143" cy="67.8571" r="3.57143" fill="#353535"/>
<circle cx="232.143" cy="75.0978" r="3.57143" fill="#353535"/>
<circle cx="110.714" cy="46.4284" r="3.57143" fill="#353535"/>
<circle cx="110.714" cy="67.8571" r="3.57143" fill="#353535"/>
<circle cx="110.714" cy="75.0978" r="3.57143" fill="#353535"/>
<circle cx="67.857" cy="46.4284" r="3.57143" fill="#353535"/>
<circle cx="67.857" cy="67.8571" r="3.57143" fill="#353535"/>
<circle cx="67.857" cy="75.0978" r="3.57143" fill="#353535"/>
<circle cx="453.571" cy="46.4284" r="3.57143" fill="#353535"/>
<circle cx="453.571" cy="67.8571" r="3.57143" fill="#353535"/>
<circle cx="453.571" cy="75.0978" r="3.57143" fill="#353535"/>
<circle cx="332.143" cy="46.4284" r="3.57143" fill="#353535"/>
<circle cx="332.143" cy="67.8571" r="3.57143" fill="#353535"/>
<circle cx="332.143" cy="75.0978" r="3.57143" fill="#353535"/>
<circle cx="210.714" cy="46.4284" r="3.57143" fill="#353535"/>
<circle cx="210.714" cy="67.8571" r="3.57143" fill="#353535"/>
<circle cx="210.714" cy="75.0978" r="3.57143" fill="#353535"/>
<circle cx="46.4287" cy="46.4284" r="3.57143" fill="#353535"/>
<circle cx="46.4287" cy="67.8571" r="3.57143" fill="#353535"/>
<circle cx="46.4287" cy="75.0978" r="3.57143" fill="#353535"/>
<circle cx="432.143" cy="46.4284" r="3.57143" fill="#353535"/>
<circle cx="432.143" cy="67.8571" r="3.57143" fill="#353535"/>
<circle cx="432.143" cy="75.0978" r="3.57143" fill="#353535"/>
<circle cx="310.714" cy="46.4284" r="3.57143" fill="#353535"/>
<circle cx="310.714" cy="67.8571" r="3.57143" fill="#353535"/>
<circle cx="310.714" cy="75.0978" r="3.57143" fill="#353535"/>
<circle cx="189.285" cy="46.4284" r="3.57143" fill="#353535"/>
<circle cx="189.285" cy="67.8571" r="3.57143" fill="#353535"/>
<circle cx="189.285" cy="75.0978" r="3.57143" fill="#353535"/>
<circle cx="410.714" cy="46.4284" r="3.57143" fill="#353535"/>
<circle cx="410.714" cy="67.8571" r="3.57143" fill="#353535"/>
<circle cx="410.714" cy="75.0978" r="3.57143" fill="#353535"/>
<circle cx="289.286" cy="46.4284" r="3.57143" fill="#353535"/>
<circle cx="289.286" cy="67.8571" r="3.57143" fill="#353535"/>
<circle cx="289.286" cy="75.0978" r="3.57143" fill="#353535"/>
<circle cx="167.857" cy="46.4284" r="3.57143" fill="#353535"/>
<circle cx="167.857" cy="67.8571" r="3.57143" fill="#353535"/>
<circle cx="167.857" cy="75.0978" r="3.57143" fill="#353535"/>
<circle cx="389.286" cy="46.4284" r="3.57143" fill="#353535"/>
<circle cx="389.286" cy="67.8571" r="3.57143" fill="#353535"/>
<circle cx="389.286" cy="75.0978" r="3.57143" fill="#353535"/>
<circle cx="267.857" cy="46.4284" r="3.57143" fill="#353535"/>
<circle cx="267.857" cy="67.8571" r="3.57143" fill="#353535"/>
<circle cx="267.857" cy="75.0978" r="3.57143" fill="#353535"/>
<circle cx="146.429" cy="46.4284" r="3.57143" fill="#353535"/>
<circle cx="146.429" cy="67.8571" r="3.57143" fill="#353535"/>
<circle cx="146.429" cy="75.0978" r="3.57143" fill="#353535"/>
<circle cx="539.286" cy="32.1427" r="3.57143" fill="#353535"/>
<circle cx="532.143" cy="32.1427" r="3.57143" fill="#353535"/>
<circle cx="510.714" cy="32.1427" r="3.57143" fill="#353535"/>
<circle cx="489.285" cy="32.1427" r="3.57143" fill="#353535"/>
<circle cx="367.857" cy="32.1427" r="3.57143" fill="#353535"/>
<circle cx="246.428" cy="32.1427" r="3.57143" fill="#353535"/>
<circle cx="125" cy="32.1427" r="3.57143" fill="#353535"/>
<circle cx="82.1427" cy="32.1427" r="3.57143" fill="#353535"/>
<circle cx="467.857" cy="32.1427" r="3.57143" fill="#353535"/>
<circle cx="346.429" cy="32.1427" r="3.57143" fill="#353535"/>
<circle cx="225" cy="32.1427" r="3.57143" fill="#353535"/>
<circle cx="103.572" cy="32.1427" r="3.57143" fill="#353535"/>
<circle cx="60.7144" cy="32.1427" r="3.57143" fill="#353535"/>
<circle cx="446.429" cy="32.1427" r="3.57143" fill="#353535"/>
<circle cx="325" cy="32.1427" r="3.57143" fill="#353535"/>
<circle cx="203.571" cy="32.1427" r="3.57143" fill="#353535"/>
<circle cx="425" cy="32.1427" r="3.57143" fill="#353535"/>
<circle cx="303.571" cy="32.1427" r="3.57143" fill="#353535"/>
<circle cx="182.143" cy="32.1427" r="3.57143" fill="#353535"/>
<circle cx="403.572" cy="32.1427" r="3.57143" fill="#353535"/>
<circle cx="282.143" cy="32.1427" r="3.57143" fill="#353535"/>
<circle cx="160.714" cy="32.1427" r="3.57143" fill="#353535"/>
<circle cx="525" cy="32.1427" r="3.57143" fill="#353535"/>
<circle cx="503.571" cy="32.1427" r="3.57143" fill="#353535"/>
<circle cx="382.143" cy="32.1427" r="3.57143" fill="#353535"/>
<circle cx="260.714" cy="32.1427" r="3.57143" fill="#353535"/>
<circle cx="139.286" cy="32.1427" r="3.57143" fill="#353535"/>
<circle cx="96.4285" cy="32.1427" r="3.57143" fill="#353535"/>
<circle cx="482.143" cy="32.1427" r="3.57143" fill="#353535"/>
<circle cx="360.714" cy="32.1427" r="3.57143" fill="#353535"/>
<circle cx="239.286" cy="32.1427" r="3.57143" fill="#353535"/>
<circle cx="117.857" cy="32.1427" r="3.57143" fill="#353535"/>
<circle cx="75.0001" cy="32.1427" r="3.57143" fill="#353535"/>
<circle cx="460.714" cy="32.1427" r="3.57143" fill="#353535"/>
<circle cx="339.285" cy="32.1427" r="3.57143" fill="#353535"/>
<circle cx="217.857" cy="32.1427" r="3.57143" fill="#353535"/>
<circle cx="53.5712" cy="32.1427" r="3.57143" fill="#353535"/>
<circle cx="439.286" cy="32.1427" r="3.57143" fill="#353535"/>
<circle cx="317.857" cy="32.1427" r="3.57143" fill="#353535"/>
<circle cx="196.429" cy="32.1427" r="3.57143" fill="#353535"/>
<circle cx="417.857" cy="32.1427" r="3.57143" fill="#353535"/>
<circle cx="296.429" cy="32.1427" r="3.57143" fill="#353535"/>
<circle cx="175" cy="32.1427" r="3.57143" fill="#353535"/>
<circle cx="396.428" cy="32.1427" r="3.57143" fill="#353535"/>
<circle cx="275" cy="32.1427" r="3.57143" fill="#353535"/>
<circle cx="153.571" cy="32.1427" r="3.57143" fill="#353535"/>
<circle cx="517.857" cy="32.1427" r="3.57143" fill="#353535"/>
<circle cx="496.429" cy="32.1427" r="3.57143" fill="#353535"/>
<circle cx="375" cy="32.1427" r="3.57143" fill="#353535"/>
<circle cx="253.572" cy="32.1427" r="3.57143" fill="#353535"/>
<circle cx="132.143" cy="32.1427" r="3.57143" fill="#353535"/>
<circle cx="89.2859" cy="32.1427" r="3.57143" fill="#353535"/>
<circle cx="475" cy="32.1427" r="3.57143" fill="#353535"/>
<circle cx="353.571" cy="32.1427" r="3.57143" fill="#353535"/>
<circle cx="232.143" cy="32.1427" r="3.57143" fill="#353535"/>
<circle cx="110.714" cy="32.1427" r="3.57143" fill="#353535"/>
<circle cx="67.857" cy="32.1427" r="3.57143" fill="#353535"/>
<circle cx="453.571" cy="32.1427" r="3.57143" fill="#353535"/>
<circle cx="332.143" cy="32.1427" r="3.57143" fill="#353535"/>
<circle cx="210.714" cy="32.1427" r="3.57143" fill="#353535"/>
<circle cx="46.4287" cy="32.1427" r="3.57143" fill="#353535"/>
<circle cx="432.143" cy="32.1427" r="3.57143" fill="#353535"/>
<circle cx="310.714" cy="32.1427" r="3.57143" fill="#353535"/>
<circle cx="189.285" cy="32.1427" r="3.57143" fill="#353535"/>
<circle cx="410.714" cy="32.1427" r="3.57143" fill="#353535"/>
<circle cx="289.286" cy="32.1427" r="3.57143" fill="#353535"/>
<circle cx="167.857" cy="32.1427" r="3.57143" fill="#353535"/>
<circle cx="389.286" cy="32.1427" r="3.57143" fill="#353535"/>
<circle cx="267.857" cy="32.1427" r="3.57143" fill="#353535"/>
<circle cx="146.429" cy="32.1427" r="3.57143" fill="#353535"/>
<circle cx="539.286" cy="17.8571" r="3.57143" fill="#353535"/>
<circle cx="532.143" cy="17.8571" r="3.57143" fill="#353535"/>
<circle cx="510.714" cy="17.8571" r="3.57143" fill="#353535"/>
<circle cx="489.285" cy="17.8571" r="3.57143" fill="#353535"/>
<circle cx="367.857" cy="17.8571" r="3.57143" fill="#353535"/>
<circle cx="246.428" cy="17.8571" r="3.57143" fill="#353535"/>
<circle cx="125" cy="17.8571" r="3.57143" fill="#353535"/>
<circle cx="82.1427" cy="17.8571" r="3.57143" fill="#353535"/>
<circle cx="467.857" cy="17.8571" r="3.57143" fill="#353535"/>
<circle cx="346.429" cy="17.8571" r="3.57143" fill="#353535"/>
<circle cx="225" cy="17.8571" r="3.57143" fill="#353535"/>
<circle cx="103.572" cy="17.8571" r="3.57143" fill="#353535"/>
<circle cx="60.7144" cy="17.8571" r="3.57143" fill="#353535"/>
<circle cx="446.429" cy="17.8571" r="3.57143" fill="#353535"/>
<circle cx="325" cy="17.8571" r="3.57143" fill="#353535"/>
<circle cx="203.571" cy="17.8571" r="3.57143" fill="#353535"/>
<circle cx="425" cy="17.8571" r="3.57143" fill="#353535"/>
<circle cx="303.571" cy="17.8571" r="3.57143" fill="#353535"/>
<circle cx="182.143" cy="17.8571" r="3.57143" fill="#353535"/>
<circle cx="403.572" cy="17.8571" r="3.57143" fill="#353535"/>
<circle cx="282.143" cy="17.8571" r="3.57143" fill="#353535"/>
<circle cx="160.714" cy="17.8571" r="3.57143" fill="#353535"/>
<circle cx="525" cy="17.8571" r="3.57143" fill="#353535"/>
<circle cx="503.571" cy="17.8571" r="3.57143" fill="#353535"/>
<circle cx="382.143" cy="17.8571" r="3.57143" fill="#353535"/>
<circle cx="260.714" cy="17.8571" r="3.57143" fill="#353535"/>
<circle cx="139.286" cy="17.8571" r="3.57143" fill="#353535"/>
<circle cx="96.4285" cy="17.8571" r="3.57143" fill="#353535"/>
<circle cx="482.143" cy="17.8571" r="3.57143" fill="#353535"/>
<circle cx="360.714" cy="17.8571" r="3.57143" fill="#353535"/>
<circle cx="239.286" cy="17.8571" r="3.57143" fill="#353535"/>
<circle cx="117.857" cy="17.8571" r="3.57143" fill="#353535"/>
<circle cx="75.0001" cy="17.8571" r="3.57143" fill="#353535"/>
<circle cx="460.714" cy="17.8571" r="3.57143" fill="#353535"/>
<circle cx="339.285" cy="17.8571" r="3.57143" fill="#353535"/>
<circle cx="217.857" cy="17.8571" r="3.57143" fill="#353535"/>
<circle cx="53.5712" cy="17.8571" r="3.57143" fill="#353535"/>
<circle cx="439.286" cy="17.8571" r="3.57143" fill="#353535"/>
<circle cx="317.857" cy="17.8571" r="3.57143" fill="#353535"/>
<circle cx="196.429" cy="17.8571" r="3.57143" fill="#353535"/>
<circle cx="417.857" cy="17.8571" r="3.57143" fill="#353535"/>
<circle cx="296.429" cy="17.8571" r="3.57143" fill="#353535"/>
<circle cx="175" cy="17.8571" r="3.57143" fill="#353535"/>
<circle cx="396.428" cy="17.8571" r="3.57143" fill="#353535"/>
<circle cx="275" cy="17.8571" r="3.57143" fill="#353535"/>
<circle cx="153.571" cy="17.8571" r="3.57143" fill="#353535"/>
<circle cx="517.857" cy="17.8571" r="3.57143" fill="#353535"/>
<circle cx="496.429" cy="17.8571" r="3.57143" fill="#353535"/>
<circle cx="375" cy="17.8571" r="3.57143" fill="#353535"/>
<circle cx="253.572" cy="17.8571" r="3.57143" fill="#353535"/>
<circle cx="132.143" cy="17.8571" r="3.57143" fill="#353535"/>
<circle cx="89.2859" cy="17.8571" r="3.57143" fill="#353535"/>
<circle cx="475" cy="17.8571" r="3.57143" fill="#353535"/>
<circle cx="353.571" cy="17.8571" r="3.57143" fill="#353535"/>
<circle cx="232.143" cy="17.8571" r="3.57143" fill="#353535"/>
<circle cx="110.714" cy="17.8571" r="3.57143" fill="#353535"/>
<circle cx="67.857" cy="17.8571" r="3.57143" fill="#353535"/>
<circle cx="453.571" cy="17.8571" r="3.57143" fill="#353535"/>
<circle cx="332.143" cy="17.8571" r="3.57143" fill="#353535"/>
<circle cx="210.714" cy="17.8571" r="3.57143" fill="#353535"/>
<circle cx="46.4287" cy="17.8571" r="3.57143" fill="#353535"/>
<circle cx="432.143" cy="17.8571" r="3.57143" fill="#353535"/>
<circle cx="310.714" cy="17.8571" r="3.57143" fill="#353535"/>
<circle cx="189.285" cy="17.8571" r="3.57143" fill="#353535"/>
<circle cx="410.714" cy="17.8571" r="3.57143" fill="#353535"/>
<circle cx="289.286" cy="17.8571" r="3.57143" fill="#353535"/>
<circle cx="167.857" cy="17.8571" r="3.57143" fill="#353535"/>
<circle cx="389.286" cy="17.8571" r="3.57143" fill="#353535"/>
<circle cx="267.857" cy="17.8571" r="3.57143" fill="#353535"/>
<circle cx="146.429" cy="17.8571" r="3.57143" fill="#353535"/>
<circle cx="539.286" cy="3.57143" r="3.57143" fill="#353535"/>
<circle cx="532.143" cy="3.57143" r="3.57143" fill="#353535"/>
<circle cx="510.714" cy="3.57143" r="3.57143" fill="#353535"/>
<circle cx="489.285" cy="3.57143" r="3.57143" fill="#353535"/>
<circle cx="367.857" cy="3.57143" r="3.57143" fill="#353535"/>
<circle cx="246.428" cy="3.57143" r="3.57143" fill="#353535"/>
<circle cx="125" cy="3.57143" r="3.57143" fill="#353535"/>
<circle cx="82.1427" cy="3.57143" r="3.57143" fill="#353535"/>
<circle cx="467.857" cy="3.57143" r="3.57143" fill="#353535"/>
<circle cx="346.429" cy="3.57143" r="3.57143" fill="#353535"/>
<circle cx="225" cy="3.57143" r="3.57143" fill="#353535"/>
<circle cx="103.572" cy="3.57143" r="3.57143" fill="#353535"/>
<circle cx="60.7144" cy="3.57143" r="3.57143" fill="#353535"/>
<circle cx="446.429" cy="3.57143" r="3.57143" fill="#353535"/>
<circle cx="325" cy="3.57143" r="3.57143" fill="#353535"/>
<circle cx="203.571" cy="3.57143" r="3.57143" fill="#353535"/>
<circle cx="425" cy="3.57143" r="3.57143" fill="#353535"/>
<circle cx="303.571" cy="3.57143" r="3.57143" fill="#353535"/>
<circle cx="182.143" cy="3.57143" r="3.57143" fill="#353535"/>
<circle cx="403.572" cy="3.57143" r="3.57143" fill="#353535"/>
<circle cx="282.143" cy="3.57143" r="3.57143" fill="#353535"/>
<circle cx="160.714" cy="3.57143" r="3.57143" fill="#353535"/>
<circle cx="525" cy="3.57143" r="3.57143" fill="#353535"/>
<circle cx="503.571" cy="3.57143" r="3.57143" fill="#353535"/>
<circle cx="382.143" cy="3.57143" r="3.57143" fill="#353535"/>
<circle cx="260.714" cy="3.57143" r="3.57143" fill="#353535"/>
<circle cx="139.286" cy="3.57143" r="3.57143" fill="#353535"/>
<circle cx="96.4285" cy="3.57143" r="3.57143" fill="#353535"/>
<circle cx="482.143" cy="3.57143" r="3.57143" fill="#353535"/>
<circle cx="360.714" cy="3.57143" r="3.57143" fill="#353535"/>
<circle cx="239.286" cy="3.57143" r="3.57143" fill="#353535"/>
<circle cx="117.857" cy="3.57143" r="3.57143" fill="#353535"/>
<circle cx="75.0001" cy="3.57143" r="3.57143" fill="#353535"/>
<circle cx="460.714" cy="3.57143" r="3.57143" fill="#353535"/>
<circle cx="339.285" cy="3.57143" r="3.57143" fill="#353535"/>
<circle cx="217.857" cy="3.57143" r="3.57143" fill="#353535"/>
<circle cx="53.5712" cy="3.57143" r="3.57143" fill="#353535"/>
<circle cx="439.286" cy="3.57143" r="3.57143" fill="#353535"/>
<circle cx="317.857" cy="3.57143" r="3.57143" fill="#353535"/>
<circle cx="196.429" cy="3.57143" r="3.57143" fill="#353535"/>
<circle cx="417.857" cy="3.57143" r="3.57143" fill="#353535"/>
<circle cx="296.429" cy="3.57143" r="3.57143" fill="#353535"/>
<circle cx="175" cy="3.57143" r="3.57143" fill="#353535"/>
<circle cx="396.428" cy="3.57143" r="3.57143" fill="#353535"/>
<circle cx="275" cy="3.57143" r="3.57143" fill="#353535"/>
<circle cx="153.571" cy="3.57143" r="3.57143" fill="#353535"/>
<circle cx="517.857" cy="3.57143" r="3.57143" fill="#353535"/>
<circle cx="496.429" cy="3.57143" r="3.57143" fill="#353535"/>
<circle cx="375" cy="3.57143" r="3.57143" fill="#353535"/>
<circle cx="253.572" cy="3.57143" r="3.57143" fill="#353535"/>
<circle cx="132.143" cy="3.57143" r="3.57143" fill="#353535"/>
<circle cx="89.2859" cy="3.57143" r="3.57143" fill="#353535"/>
<circle cx="475" cy="3.57143" r="3.57143" fill="#353535"/>
<circle cx="353.571" cy="3.57143" r="3.57143" fill="#353535"/>
<circle cx="232.143" cy="3.57143" r="3.57143" fill="#353535"/>
<circle cx="110.714" cy="3.57143" r="3.57143" fill="#353535"/>
<circle cx="67.857" cy="3.57143" r="3.57143" fill="#353535"/>
<circle cx="453.571" cy="3.57143" r="3.57143" fill="#353535"/>
<circle cx="332.143" cy="3.57143" r="3.57143" fill="#353535"/>
<circle cx="210.714" cy="3.57143" r="3.57143" fill="#353535"/>
<circle cx="46.4287" cy="3.57143" r="3.57143" fill="#353535"/>
<circle cx="432.143" cy="3.57143" r="3.57143" fill="#353535"/>
<circle cx="310.714" cy="3.57143" r="3.57143" fill="#353535"/>
<circle cx="189.285" cy="3.57143" r="3.57143" fill="#353535"/>
<circle cx="410.714" cy="3.57143" r="3.57143" fill="#353535"/>
<circle cx="289.286" cy="3.57143" r="3.57143" fill="#353535"/>
<circle cx="167.857" cy="3.57143" r="3.57143" fill="#353535"/>
<circle cx="389.286" cy="3.57143" r="3.57143" fill="#353535"/>
<circle cx="267.857" cy="3.57143" r="3.57143" fill="#353535"/>
<circle cx="146.429" cy="3.57143" r="3.57143" fill="#353535"/>
<circle cx="553.572" cy="3.57143" r="3.57143" fill="#353535"/>
<circle cx="553.572" cy="53.5714" r="3.57143" fill="#353535"/>
<circle cx="24.9998" cy="17.8571" r="3.57143" fill="#353535"/>
<circle cx="17.8572" cy="17.9547" r="3.57143" fill="#353535"/>
<circle cx="3.57143" cy="32.1427" r="3.57143" fill="#353535"/>
<circle cx="10.714" cy="32.1427" r="3.57143" fill="#353535"/>
<circle cx="24.9998" cy="3.57143" r="3.57143" fill="#353535"/>
<circle cx="17.8572" cy="3.66909" r="3.57143" fill="#353535"/>
<circle cx="10.714" cy="17.8571" r="3.57143" fill="#353535"/>
<circle cx="24.9998" cy="32.1427" r="3.57143" fill="#353535"/>
<circle cx="17.8572" cy="32.2404" r="3.57143" fill="#353535"/>
<circle cx="24.9998" cy="46.4284" r="3.57143" fill="#353535"/>
<circle cx="24.9998" cy="67.8571" r="3.57143" fill="#353535"/>
<circle cx="24.9998" cy="75.0978" r="3.57143" fill="#353535"/>
<circle cx="17.8572" cy="46.526" r="3.57143" fill="#353535"/>
<circle cx="17.8572" cy="67.9547" r="3.57143" fill="#353535"/>
<circle cx="17.8572" cy="75.1954" r="3.57143" fill="#353535"/>
<circle cx="10.714" cy="10.7145" r="3.57143" fill="#353535"/>
<circle cx="10.714" cy="46.4284" r="3.57143" fill="#353535"/>
<circle cx="10.714" cy="60.8122" r="3.57143" fill="#353535"/>
<circle cx="10.714" cy="67.9547" r="3.57143" fill="#353535"/>
<circle cx="24.9998" cy="10.7145" r="3.57143" fill="#353535"/>
<circle cx="17.8572" cy="10.8122" r="3.57143" fill="#353535"/>
<circle cx="10.714" cy="39.2858" r="3.57143" fill="#353535"/>
<circle cx="10.714" cy="53.6691" r="3.57143" fill="#353535"/>
<circle cx="3.57143" cy="25.0001" r="3.57143" fill="#353535"/>
<circle cx="24.9998" cy="39.2858" r="3.57143" fill="#353535"/>
<circle cx="24.9998" cy="60.714" r="3.57143" fill="#353535"/>
<circle cx="17.8572" cy="39.3834" r="3.57143" fill="#353535"/>
<circle cx="17.8572" cy="60.8122" r="3.57143" fill="#353535"/>
<circle cx="10.714" cy="25.0001" r="3.57143" fill="#353535"/>
<circle cx="3.57143" cy="39.2858" r="3.57143" fill="#353535"/>
<circle cx="3.57143" cy="53.6691" r="3.57143" fill="#353535"/>
<circle cx="3.57143" cy="60.8122" r="3.57143" fill="#353535"/>
<circle cx="3.57143" cy="46.526" r="3.57143" fill="#353535"/>
<circle cx="3.57143" cy="17.8571" r="3.57143" fill="#353535"/>
<circle cx="24.9998" cy="25.0001" r="3.57143" fill="#353535"/>
<circle cx="17.8572" cy="25.0978" r="3.57143" fill="#353535"/>
<circle cx="24.9998" cy="53.5714" r="3.57143" fill="#353535"/>
<circle cx="17.8572" cy="53.6691" r="3.57143" fill="#353535"/>
<circle cx="39.2855" cy="53.5714" r="3.57143" fill="#353535"/>
<circle cx="32.1429" cy="53.5714" r="3.57143" fill="#353535"/>
<circle cx="39.2855" cy="39.2858" r="3.57143" fill="#353535"/>
<circle cx="39.2855" cy="60.714" r="3.57143" fill="#353535"/>
<circle cx="32.1429" cy="39.2858" r="3.57143" fill="#353535"/>
<circle cx="32.1429" cy="60.714" r="3.57143" fill="#353535"/>
<circle cx="39.2855" cy="25.0001" r="3.57143" fill="#353535"/>
<circle cx="32.1429" cy="25.0001" r="3.57143" fill="#353535"/>
<circle cx="39.2855" cy="10.7145" r="3.57143" fill="#353535"/>
<circle cx="32.1429" cy="10.7145" r="3.57143" fill="#353535"/>
<circle cx="39.2855" cy="46.4284" r="3.57143" fill="#353535"/>
<circle cx="39.2855" cy="67.8571" r="3.57143" fill="#353535"/>
<circle cx="39.2855" cy="75.0978" r="3.57143" fill="#353535"/>
<circle cx="32.1429" cy="46.4284" r="3.57143" fill="#353535"/>
<circle cx="32.1429" cy="67.8571" r="3.57143" fill="#353535"/>
<circle cx="32.1429" cy="75.0978" r="3.57143" fill="#353535"/>
<circle cx="39.2855" cy="32.1427" r="3.57143" fill="#353535"/>
<circle cx="32.1429" cy="32.1427" r="3.57143" fill="#353535"/>
<circle cx="39.2855" cy="17.8571" r="3.57143" fill="#353535"/>
<circle cx="32.1429" cy="17.8571" r="3.57143" fill="#353535"/>
<circle cx="39.2855" cy="3.57143" r="3.57143" fill="#353535"/>
<circle cx="32.1429" cy="3.57143" r="3.57143" fill="#353535"/>
</svg>
