<svg width="40" height="40" viewBox="0 0 40 40" fill="none" xmlns="http://www.w3.org/2000/svg">
<path opacity="0.6" d="M35.5263 39.2751L27.1053 30.8402C25.7895 31.8946 24.2763 32.7293 22.5658 33.3443C20.8553 33.9594 19.0351 34.2669 17.1053 34.2669C12.3246 34.2669 8.27851 32.6085 4.9671 29.2916C1.6557 25.9747 0 21.922 0 17.1334C0 12.3449 1.6557 8.29215 4.9671 4.97529C8.27851 1.65843 12.3246 0 17.1053 0C21.886 0 25.932 1.65843 29.2434 4.97529C32.5548 8.29215 34.2105 12.3449 34.2105 17.1334C34.2105 19.0664 33.9035 20.8896 33.2895 22.603C32.6754 24.3163 31.8421 25.832 30.7895 27.1499L39.2763 35.6507C39.7588 36.134 40 36.7271 40 37.43C40 38.1329 39.7368 38.7479 39.2105 39.2751C38.7281 39.7584 38.114 40 37.3684 40C36.6228 40 36.0088 39.7584 35.5263 39.2751ZM17.1053 28.9951C20.3947 28.9951 23.1908 27.8418 25.4934 25.5354C27.796 23.229 28.9474 20.4283 28.9474 17.1334C28.9474 13.8385 27.796 11.0379 25.4934 8.73147C23.1908 6.42504 20.3947 5.27183 17.1053 5.27183C13.8158 5.27183 11.0197 6.42504 8.7171 8.73147C6.41447 11.0379 5.26316 13.8385 5.26316 17.1334C5.26316 20.4283 6.41447 23.229 8.7171 25.5354C11.0197 27.8418 13.8158 28.9951 17.1053 28.9951Z" fill="white"/>
</svg>
